<?xml version="1.0" encoding="utf-8"?>
<!-- Generator: Adobe Illustrator 16.0.0, SVG Export Plug-In . SVG Version: 6.00 Build 0)  -->
<!DOCTYPE svg PUBLIC "-//W3C//DTD SVG 1.1//EN" "http://www.w3.org/Graphics/SVG/1.1/DTD/svg11.dtd">
<svg version="1.1" id="Layer_1" xmlns="http://www.w3.org/2000/svg" xmlns:xlink="http://www.w3.org/1999/xlink" x="0px" y="0px"
	 width="75px" height="75px" viewBox="0 0 75 75" enable-background="new 0 0 75 75" xml:space="preserve">
<linearGradient id="SVGID_1_" gradientUnits="userSpaceOnUse" x1="-98.8105" y1="-288.938" x2="-34.332" y2="-288.938" gradientTransform="matrix(1 0 0 1 104.0703 326.4375)">
	<stop  offset="0" style="stop-color:#EDA618"/>
	<stop  offset="1" style="stop-color:#D3FF18"/>
</linearGradient>
<path fill="url(#SVGID_1_)" d="M37.499,69.74c17.776,0,32.239-14.463,32.239-32.24c0-17.777-14.463-32.241-32.239-32.241
	C19.723,5.259,5.26,19.723,5.26,37.5C5.259,55.275,19.722,69.74,37.499,69.74z"/>
<linearGradient id="SVGID_2_" gradientUnits="userSpaceOnUse" x1="-641.0713" y1="-1005.9385" x2="-566.0713" y2="-1005.9385" gradientTransform="matrix(-1 0 0 -1 -566.0713 -968.4385)">
	<stop  offset="0" style="stop-color:#EDA618"/>
	<stop  offset="1" style="stop-color:#D3FF18"/>
</linearGradient>
<path fill="url(#SVGID_2_)" d="M37.5,0C16.79,0,0,16.789,0,37.499C0,58.21,16.79,75,37.5,75S75,58.21,75,37.499
	C75.001,16.789,58.211,0,37.5,0z M37.5,72.25c-19.161,0-34.75-15.588-34.75-34.751c0-19.161,15.589-34.751,34.75-34.751
	c19.16,0,34.75,15.59,34.75,34.751C72.25,56.662,56.661,72.25,37.5,72.25z"/>
<linearGradient id="SVGID_3_" gradientUnits="userSpaceOnUse" x1="-422.3784" y1="-122.6611" x2="-422.3784" y2="-157.0417" gradientTransform="matrix(-1 0 0 -1 -384.9453 -94.499)">
	<stop  offset="0" style="stop-color:#EDA618"/>
	<stop  offset="1" style="stop-color:#D3FF18"/>
</linearGradient>
<path fill="url(#SVGID_3_)" d="M6.389,38.55c0-17.145,62.087-17.145,62.087,0.001c0,17.146-13.897,31.043-31.044,31.043
	C20.286,69.594,6.389,55.695,6.389,38.55z"/>
<g>
	<g>
		<path d="M49.104,20.768c0.732,0,1.473,0.279,2.031,0.841c1.124,1.124,1.124,2.944,0,4.067L37.5,39.311L23.865,25.676
			c-1.122-1.123-1.122-2.943,0-4.067c1.122-1.121,2.942-1.121,4.065,0l9.569,9.57l9.569-9.57
			C47.63,21.047,48.369,20.768,49.104,20.768z"/>
	</g>
	<g>
		<path d="M49.104,38.322c0.732,0,1.473,0.281,2.031,0.843c1.124,1.122,1.124,2.942,0,4.063L37.5,56.865L23.865,43.229
			c-1.122-1.121-1.122-2.94,0-4.063c1.122-1.125,2.942-1.125,4.065,0l9.569,9.566l9.569-9.566
			C47.63,38.604,48.369,38.322,49.104,38.322z"/>
	</g>
</g>
</svg>
