<?xml version="1.0" encoding="utf-8"?>
<!-- Generator: Adobe Illustrator 16.0.0, SVG Export Plug-In . SVG Version: 6.00 Build 0)  -->
<!DOCTYPE svg PUBLIC "-//W3C//DTD SVG 1.1//EN" "http://www.w3.org/Graphics/SVG/1.1/DTD/svg11.dtd">
<svg version="1.1" id="Capa_1" xmlns="http://www.w3.org/2000/svg" xmlns:xlink="http://www.w3.org/1999/xlink" x="0px" y="0px"
	 width="208.576px" height="267.347px" viewBox="0 0 208.576 267.347" enable-background="new 0 0 208.576 267.347"
	 xml:space="preserve">
<g>
	<circle fill="#031A3F" cx="153.426" cy="264.85" r="1.469"/>
	<path fill="#031A3F" d="M147.486,260.379c0-0.807,0.658-1.469,1.471-1.469c0.811,0,1.469,0.662,1.469,1.469
		c0,0.812-0.658,1.471-1.469,1.471C148.144,261.85,147.486,261.19,147.486,260.379z"/>
	<path fill="#031A3F" d="M151.958,260.379c0-0.807,0.657-1.469,1.469-1.469c0.813,0,1.469,0.662,1.469,1.469
		c0,0.812-0.656,1.471-1.469,1.471C152.615,261.85,151.958,261.19,151.958,260.379z"/>
	<circle fill="#031A3F" cx="148.956" cy="255.893" r="1.47"/>
	<circle fill="#031A3F" cx="148.956" cy="251.422" r="1.47"/>
	<circle fill="#031A3F" cx="153.426" cy="251.422" r="1.469"/>
	<circle fill="#031A3F" cx="144.516" cy="246.971" r="1.469"/>
	<circle fill="#031A3F" cx="148.966" cy="246.971" r="1.47"/>
	<circle fill="#031A3F" cx="153.437" cy="246.971" r="1.469"/>
	<circle fill="#031A3F" cx="157.886" cy="246.971" r="1.47"/>
	<path fill="#031A3F" d="M147.496,242.5c0-0.812,0.659-1.469,1.469-1.469c0.814,0,1.472,0.657,1.472,1.469
		c0,0.816-0.657,1.471-1.472,1.471C148.155,243.971,147.496,243.316,147.496,242.5z"/>
	<path fill="#031A3F" d="M151.968,242.5c0-0.812,0.657-1.469,1.468-1.469c0.813,0,1.47,0.657,1.47,1.469
		c0,0.816-0.656,1.471-1.47,1.471C152.625,243.971,151.968,243.316,151.968,242.5z"/>
	<circle fill="#031A3F" cx="148.966" cy="238.012" r="1.47"/>
	<circle fill="#031A3F" cx="153.437" cy="238.012" r="1.469"/>
	<circle fill="#031A3F" cx="157.886" cy="238.012" r="1.47"/>
	<path fill="#031A3F" d="M147.496,233.546c0-0.814,0.659-1.475,1.469-1.475c0.814,0,1.472,0.66,1.472,1.475
		c0,0.811-0.657,1.466-1.472,1.466C148.155,235.012,147.496,234.356,147.496,233.546z"/>
	<path fill="#031A3F" d="M151.968,233.546c0-0.814,0.657-1.475,1.468-1.475c0.813,0,1.47,0.66,1.47,1.475
		c0,0.811-0.656,1.466-1.47,1.466C152.625,235.012,151.968,234.356,151.968,233.546z"/>
	<path fill="#031A3F" d="M156.417,233.546c0-0.814,0.659-1.475,1.471-1.475c0.811,0,1.469,0.66,1.469,1.475
		c0,0.811-0.658,1.466-1.469,1.466C157.076,235.012,156.417,234.356,156.417,233.546z"/>
	<path fill="#031A3F" d="M160.929,233.546c0-0.814,0.658-1.475,1.469-1.475c0.813,0,1.471,0.66,1.471,1.475
		c0,0.811-0.657,1.466-1.471,1.466C161.587,235.012,160.929,234.356,160.929,233.546z"/>
	<path fill="#031A3F" d="M147.5,229.069c0-0.813,0.658-1.469,1.47-1.469c0.811,0,1.469,0.655,1.469,1.469
		c0,0.814-0.658,1.472-1.469,1.472C148.159,230.541,147.5,229.884,147.5,229.069z"/>
	<path fill="#031A3F" d="M151.97,229.069c0-0.813,0.658-1.469,1.471-1.469c0.812,0,1.469,0.655,1.469,1.469
		c0,0.814-0.657,1.472-1.469,1.472C152.628,230.541,151.97,229.884,151.97,229.069z"/>
	<path fill="#031A3F" d="M156.42,229.069c0-0.813,0.657-1.469,1.471-1.469c0.811,0,1.467,0.655,1.467,1.469
		c0,0.814-0.656,1.472-1.467,1.472C157.078,230.541,156.42,229.884,156.42,229.069z"/>
	<path fill="#031A3F" d="M160.932,229.069c0-0.813,0.659-1.469,1.471-1.469c0.811,0,1.469,0.655,1.469,1.469
		c0,0.814-0.658,1.472-1.469,1.472C161.591,230.541,160.932,229.884,160.932,229.069z"/>
	<path fill="#031A3F" d="M165.382,229.069c0-0.813,0.657-1.469,1.469-1.469c0.813,0,1.472,0.655,1.472,1.469
		c0,0.814-0.658,1.472-1.472,1.472C166.04,230.541,165.382,229.884,165.382,229.069z"/>
	<path fill="#031A3F" d="M169.874,229.069c0-0.813,0.658-1.469,1.47-1.469c0.813,0,1.47,0.655,1.47,1.469
		c0,0.814-0.657,1.472-1.47,1.472C170.532,230.541,169.874,229.884,169.874,229.069z"/>
	<circle fill="#031A3F" cx="148.97" cy="224.601" r="1.469"/>
	<circle fill="#031A3F" cx="153.44" cy="224.601" r="1.47"/>
	<circle fill="#031A3F" cx="157.889" cy="224.601" r="1.469"/>
	<circle fill="#031A3F" cx="162.402" cy="224.601" r="1.47"/>
	<circle fill="#031A3F" cx="166.853" cy="224.601" r="1.47"/>
	<circle fill="#031A3F" cx="171.343" cy="224.601" r="1.47"/>
	<circle fill="#031A3F" cx="153.44" cy="220.112" r="1.47"/>
	<path fill="#031A3F" d="M156.42,220.112c0-0.813,0.657-1.471,1.471-1.471c0.811,0,1.467,0.657,1.467,1.471
		c0,0.812-0.656,1.467-1.467,1.467C157.078,221.579,156.42,220.924,156.42,220.112z"/>
	<circle fill="#031A3F" cx="162.402" cy="220.112" r="1.47"/>
	<circle fill="#031A3F" cx="166.853" cy="220.112" r="1.47"/>
	<circle fill="#031A3F" cx="171.343" cy="220.112" r="1.47"/>
	<circle fill="#031A3F" cx="175.793" cy="220.112" r="1.471"/>
	<path fill="#031A3F" d="M147.5,215.642c0-0.812,0.658-1.466,1.47-1.466c0.811,0,1.469,0.654,1.469,1.466
		c0,0.814-0.658,1.472-1.469,1.472C148.159,217.113,147.5,216.456,147.5,215.642z"/>
	<path fill="#031A3F" d="M151.97,215.642c0-0.812,0.658-1.466,1.471-1.466c0.812,0,1.469,0.654,1.469,1.466
		c0,0.814-0.657,1.472-1.469,1.472C152.628,217.113,151.97,216.456,151.97,215.642z"/>
	<path fill="#031A3F" d="M156.42,215.642c0-0.812,0.657-1.466,1.471-1.466c0.811,0,1.467,0.654,1.467,1.466
		c0,0.814-0.656,1.472-1.467,1.472C157.078,217.113,156.42,216.456,156.42,215.642z"/>
	<path fill="#031A3F" d="M160.932,215.642c0-0.812,0.659-1.466,1.471-1.466c0.811,0,1.469,0.654,1.469,1.466
		c0,0.814-0.658,1.472-1.469,1.472C161.591,217.113,160.932,216.456,160.932,215.642z"/>
	<path fill="#031A3F" d="M165.382,215.642c0-0.812,0.657-1.466,1.469-1.466c0.813,0,1.472,0.654,1.472,1.466
		c0,0.814-0.658,1.472-1.472,1.472C166.04,217.113,165.382,216.456,165.382,215.642z"/>
	<path fill="#031A3F" d="M169.874,215.642c0-0.812,0.658-1.466,1.47-1.466c0.813,0,1.47,0.654,1.47,1.466
		c0,0.814-0.657,1.472-1.47,1.472C170.532,217.113,169.874,216.456,169.874,215.642z"/>
	<path fill="#031A3F" d="M174.323,215.642c0-0.812,0.658-1.466,1.471-1.466s1.471,0.654,1.471,1.466
		c0,0.814-0.658,1.472-1.471,1.472S174.323,216.456,174.323,215.642z"/>
	<path fill="#031A3F" d="M178.837,215.642c0-0.812,0.657-1.466,1.469-1.466c0.811,0,1.469,0.654,1.469,1.466
		c0,0.814-0.658,1.472-1.469,1.472C179.495,217.113,178.837,216.456,178.837,215.642z"/>
	<path fill="#031A3F" d="M151.955,211.218c0-0.812,0.659-1.469,1.469-1.469c0.813,0,1.469,0.657,1.469,1.469
		c0,0.814-0.656,1.472-1.469,1.472C152.614,212.689,151.955,212.032,151.955,211.218z"/>
	<path fill="#031A3F" d="M156.406,211.218c0-0.812,0.657-1.469,1.468-1.469c0.813,0,1.47,0.657,1.47,1.469
		c0,0.814-0.657,1.472-1.47,1.472C157.063,212.689,156.406,212.032,156.406,211.218z"/>
	<path fill="#031A3F" d="M160.917,211.218c0-0.812,0.657-1.469,1.469-1.469c0.813,0,1.472,0.657,1.472,1.469
		c0,0.814-0.658,1.472-1.472,1.472C161.574,212.689,160.917,212.032,160.917,211.218z"/>
	<path fill="#031A3F" d="M165.366,211.218c0-0.812,0.659-1.469,1.471-1.469s1.469,0.657,1.469,1.469
		c0,0.814-0.657,1.472-1.469,1.472S165.366,212.032,165.366,211.218z"/>
	<path fill="#031A3F" d="M169.858,211.218c0-0.812,0.658-1.469,1.469-1.469c0.813,0,1.469,0.657,1.469,1.469
		c0,0.814-0.656,1.472-1.469,1.472C170.516,212.689,169.858,212.032,169.858,211.218z"/>
	<path fill="#031A3F" d="M174.308,211.218c0-0.812,0.657-1.469,1.468-1.469c0.813,0,1.471,0.657,1.471,1.469
		c0,0.814-0.657,1.472-1.471,1.472C174.965,212.689,174.308,212.032,174.308,211.218z"/>
	<path fill="#031A3F" d="M178.82,211.218c0-0.812,0.657-1.469,1.469-1.469c0.813,0,1.471,0.657,1.471,1.469
		c0,0.814-0.658,1.472-1.471,1.472C179.477,212.689,178.82,212.032,178.82,211.218z"/>
	<path fill="#031A3F" d="M183.27,211.218c0-0.812,0.657-1.469,1.47-1.469c0.812,0,1.469,0.657,1.469,1.469
		c0,0.814-0.657,1.472-1.469,1.472C183.927,212.689,183.27,212.032,183.27,211.218z"/>
	<path fill="#031A3F" d="M151.955,206.749c0-0.809,0.659-1.466,1.469-1.466c0.813,0,1.469,0.657,1.469,1.466
		c0,0.814-0.656,1.472-1.469,1.472C152.614,208.221,151.955,207.563,151.955,206.749z"/>
	<path fill="#031A3F" d="M156.406,206.749c0-0.809,0.657-1.466,1.468-1.466c0.813,0,1.47,0.657,1.47,1.466
		c0,0.814-0.657,1.472-1.47,1.472C157.063,208.221,156.406,207.563,156.406,206.749z"/>
	<path fill="#031A3F" d="M160.917,206.749c0-0.809,0.657-1.466,1.469-1.466c0.813,0,1.472,0.657,1.472,1.466
		c0,0.814-0.658,1.472-1.472,1.472C161.574,208.221,160.917,207.563,160.917,206.749z"/>
	<path fill="#031A3F" d="M165.366,206.749c0-0.809,0.659-1.466,1.471-1.466s1.469,0.657,1.469,1.466
		c0,0.814-0.657,1.472-1.469,1.472S165.366,207.563,165.366,206.749z"/>
	<path fill="#031A3F" d="M169.858,206.749c0-0.809,0.658-1.466,1.469-1.466c0.813,0,1.469,0.657,1.469,1.466
		c0,0.814-0.656,1.472-1.469,1.472C170.516,208.221,169.858,207.563,169.858,206.749z"/>
	<path fill="#031A3F" d="M174.308,206.749c0-0.809,0.657-1.466,1.468-1.466c0.813,0,1.471,0.657,1.471,1.466
		c0,0.814-0.657,1.472-1.471,1.472C174.965,208.221,174.308,207.563,174.308,206.749z"/>
	<path fill="#031A3F" d="M178.82,206.749c0-0.809,0.657-1.466,1.469-1.466c0.813,0,1.471,0.657,1.471,1.466
		c0,0.814-0.658,1.472-1.471,1.472C179.477,208.221,178.82,207.563,178.82,206.749z"/>
	<path fill="#031A3F" d="M183.27,206.749c0-0.809,0.657-1.466,1.47-1.466c0.812,0,1.469,0.657,1.469,1.466
		c0,0.814-0.657,1.472-1.469,1.472C183.927,208.221,183.27,207.563,183.27,206.749z"/>
	<circle fill="#031A3F" cx="153.423" cy="202.261" r="1.469"/>
	<circle fill="#031A3F" cx="157.875" cy="202.261" r="1.469"/>
	<circle fill="#031A3F" cx="162.387" cy="202.261" r="1.47"/>
	<circle fill="#031A3F" cx="166.835" cy="202.261" r="1.47"/>
	<circle fill="#031A3F" cx="171.327" cy="202.261" r="1.469"/>
	<circle fill="#031A3F" cx="175.777" cy="202.261" r="1.469"/>
	<circle fill="#031A3F" cx="180.29" cy="202.261" r="1.47"/>
	<circle fill="#031A3F" cx="184.739" cy="202.261" r="1.469"/>
	<circle fill="#031A3F" cx="153.423" cy="197.793" r="1.469"/>
	<circle fill="#031A3F" cx="157.875" cy="197.793" r="1.469"/>
	<circle fill="#031A3F" cx="162.387" cy="197.793" r="1.47"/>
	<circle fill="#031A3F" cx="166.835" cy="197.793" r="1.47"/>
	<circle fill="#031A3F" cx="171.327" cy="197.793" r="1.469"/>
	<circle fill="#031A3F" cx="175.777" cy="197.793" r="1.469"/>
	<circle fill="#031A3F" cx="180.29" cy="197.793" r="1.47"/>
	<circle fill="#031A3F" cx="184.739" cy="197.793" r="1.469"/>
	<circle fill="#031A3F" cx="189.208" cy="197.793" r="1.469"/>
	<circle fill="#031A3F" cx="193.66" cy="197.793" r="1.469"/>
	<circle fill="#031A3F" cx="198.172" cy="197.793" r="1.469"/>
	<circle fill="#031A3F" cx="153.427" cy="193.319" r="1.47"/>
	<circle fill="#031A3F" cx="157.877" cy="193.319" r="1.469"/>
	<circle fill="#031A3F" cx="162.39" cy="193.319" r="1.469"/>
	<circle fill="#031A3F" cx="166.84" cy="193.319" r="1.47"/>
	<circle fill="#031A3F" cx="171.331" cy="193.319" r="1.47"/>
	<circle fill="#031A3F" cx="175.781" cy="193.319" r="1.47"/>
	<circle fill="#031A3F" cx="180.293" cy="193.319" r="1.469"/>
	<circle fill="#031A3F" cx="184.743" cy="193.319" r="1.469"/>
	<circle fill="#031A3F" cx="189.213" cy="193.319" r="1.469"/>
	<circle fill="#031A3F" cx="193.663" cy="193.319" r="1.47"/>
	<circle fill="#031A3F" cx="198.175" cy="193.319" r="1.469"/>
	<circle fill="#031A3F" cx="144.506" cy="188.851" r="1.47"/>
	<circle fill="#031A3F" cx="148.956" cy="188.851" r="1.47"/>
	<circle fill="#031A3F" cx="153.427" cy="188.851" r="1.47"/>
	<circle fill="#031A3F" cx="157.877" cy="188.851" r="1.469"/>
	<circle fill="#031A3F" cx="162.39" cy="188.851" r="1.469"/>
	<circle fill="#031A3F" cx="166.84" cy="188.851" r="1.47"/>
	<circle fill="#031A3F" cx="171.331" cy="188.851" r="1.47"/>
	<circle fill="#031A3F" cx="175.781" cy="188.851" r="1.47"/>
	<circle fill="#031A3F" cx="180.293" cy="188.851" r="1.469"/>
	<circle fill="#031A3F" cx="184.743" cy="188.851" r="1.469"/>
	<circle fill="#031A3F" cx="189.213" cy="188.851" r="1.469"/>
	<circle fill="#031A3F" cx="193.663" cy="188.851" r="1.47"/>
	<circle fill="#031A3F" cx="198.175" cy="188.851" r="1.469"/>
	<circle fill="#031A3F" cx="144.506" cy="184.36" r="1.47"/>
	<circle fill="#031A3F" cx="148.956" cy="184.36" r="1.47"/>
	<circle fill="#031A3F" cx="153.427" cy="184.36" r="1.47"/>
	<circle fill="#031A3F" cx="157.877" cy="184.36" r="1.469"/>
	<circle fill="#031A3F" cx="162.39" cy="184.36" r="1.469"/>
	<circle fill="#031A3F" cx="166.84" cy="184.36" r="1.47"/>
	<circle fill="#031A3F" cx="171.331" cy="184.36" r="1.47"/>
	<circle fill="#031A3F" cx="175.781" cy="184.36" r="1.47"/>
	<circle fill="#031A3F" cx="180.293" cy="184.36" r="1.469"/>
	<circle fill="#031A3F" cx="184.743" cy="184.36" r="1.469"/>
	<circle fill="#031A3F" cx="189.213" cy="184.36" r="1.469"/>
	<circle fill="#031A3F" cx="193.663" cy="184.36" r="1.47"/>
	<circle fill="#031A3F" cx="198.175" cy="184.36" r="1.469"/>
	<path fill="#031A3F" d="M138.526,179.892c0-0.812,0.656-1.469,1.467-1.469c0.814,0,1.472,0.657,1.472,1.469
		s-0.657,1.471-1.472,1.471C139.182,181.362,138.526,180.703,138.526,179.892z"/>
	<circle fill="#031A3F" cx="144.506" cy="179.892" r="1.47"/>
	<circle fill="#031A3F" cx="148.956" cy="179.892" r="1.47"/>
	<circle fill="#031A3F" cx="153.427" cy="179.892" r="1.47"/>
	<circle fill="#031A3F" cx="157.877" cy="179.892" r="1.469"/>
	<circle fill="#031A3F" cx="162.39" cy="179.892" r="1.469"/>
	<circle fill="#031A3F" cx="166.84" cy="179.892" r="1.47"/>
	<circle fill="#031A3F" cx="171.331" cy="179.892" r="1.47"/>
	<circle fill="#031A3F" cx="175.781" cy="179.892" r="1.47"/>
	<circle fill="#031A3F" cx="180.293" cy="179.892" r="1.469"/>
	<circle fill="#031A3F" cx="184.743" cy="179.892" r="1.469"/>
	<circle fill="#031A3F" cx="189.213" cy="179.892" r="1.469"/>
	<circle fill="#031A3F" cx="193.663" cy="179.892" r="1.47"/>
	<circle fill="#031A3F" cx="198.175" cy="179.892" r="1.469"/>
	<path fill="#031A3F" d="M201.155,179.892c0-0.812,0.658-1.469,1.472-1.469c0.809,0,1.469,0.657,1.469,1.469
		s-0.66,1.471-1.469,1.471C201.813,181.362,201.155,180.703,201.155,179.892z"/>
	<path fill="#031A3F" d="M138.535,175.438c0-0.812,0.659-1.469,1.471-1.469s1.469,0.657,1.469,1.469
		c0,0.814-0.657,1.472-1.469,1.472S138.535,176.252,138.535,175.438z"/>
	<path fill="#031A3F" d="M143.047,175.438c0-0.812,0.659-1.469,1.469-1.469c0.813,0,1.469,0.657,1.469,1.469
		c0,0.814-0.655,1.472-1.469,1.472C143.707,176.909,143.047,176.252,143.047,175.438z"/>
	<path fill="#031A3F" d="M147.496,175.438c0-0.812,0.66-1.469,1.469-1.469c0.814,0,1.472,0.657,1.472,1.469
		c0,0.814-0.657,1.472-1.472,1.472C148.156,176.909,147.496,176.252,147.496,175.438z"/>
	<path fill="#031A3F" d="M151.968,175.438c0-0.812,0.657-1.469,1.469-1.469c0.813,0,1.47,0.657,1.47,1.469
		c0,0.814-0.657,1.472-1.47,1.472C152.625,176.909,151.968,176.252,151.968,175.438z"/>
	<path fill="#031A3F" d="M156.418,175.438c0-0.812,0.657-1.469,1.469-1.469c0.813,0,1.47,0.657,1.47,1.469
		c0,0.814-0.657,1.472-1.47,1.472C157.076,176.909,156.418,176.252,156.418,175.438z"/>
	<path fill="#031A3F" d="M160.93,175.438c0-0.812,0.658-1.469,1.47-1.469s1.469,0.657,1.469,1.469c0,0.814-0.657,1.472-1.469,1.472
		S160.93,176.252,160.93,175.438z"/>
	<path fill="#031A3F" d="M165.379,175.438c0-0.812,0.659-1.469,1.471-1.469c0.81,0,1.47,0.657,1.47,1.469
		c0,0.814-0.66,1.472-1.47,1.472C166.039,176.909,165.379,176.252,165.379,175.438z"/>
	<path fill="#031A3F" d="M169.871,175.438c0-0.812,0.659-1.469,1.472-1.469c0.811,0,1.469,0.657,1.469,1.469
		c0,0.814-0.658,1.472-1.469,1.472C170.53,176.909,169.871,176.252,169.871,175.438z"/>
	<path fill="#031A3F" d="M174.322,175.438c0-0.812,0.657-1.469,1.469-1.469s1.472,0.657,1.472,1.469c0,0.814-0.66,1.472-1.472,1.472
		S174.322,176.252,174.322,175.438z"/>
	<path fill="#031A3F" d="M178.833,175.438c0-0.812,0.658-1.469,1.472-1.469c0.811,0,1.469,0.657,1.469,1.469
		c0,0.814-0.658,1.472-1.469,1.472C179.491,176.909,178.833,176.252,178.833,175.438z"/>
	<path fill="#031A3F" d="M183.284,175.438c0-0.812,0.658-1.469,1.47-1.469s1.469,0.657,1.469,1.469c0,0.814-0.657,1.472-1.469,1.472
		S183.284,176.252,183.284,175.438z"/>
	<path fill="#031A3F" d="M187.754,175.438c0-0.812,0.657-1.469,1.469-1.469s1.469,0.657,1.469,1.469
		c0,0.814-0.657,1.472-1.469,1.472S187.754,176.252,187.754,175.438z"/>
	<path fill="#031A3F" d="M192.204,175.438c0-0.812,0.657-1.469,1.471-1.469c0.812,0,1.469,0.657,1.469,1.469
		c0,0.814-0.657,1.472-1.469,1.472C192.861,176.909,192.204,176.252,192.204,175.438z"/>
	<path fill="#031A3F" d="M196.716,175.438c0-0.812,0.66-1.469,1.469-1.469c0.813,0,1.469,0.657,1.469,1.469
		c0,0.814-0.655,1.472-1.469,1.472C197.376,176.909,196.716,176.252,196.716,175.438z"/>
	<path fill="#031A3F" d="M201.165,175.438c0-0.812,0.66-1.469,1.472-1.469s1.469,0.657,1.469,1.469c0,0.814-0.657,1.472-1.469,1.472
		S201.165,176.252,201.165,175.438z"/>
	<path fill="#031A3F" d="M205.638,175.438c0-0.812,0.655-1.469,1.467-1.469s1.471,0.657,1.471,1.469
		c0,0.814-0.659,1.472-1.471,1.472S205.638,176.252,205.638,175.438z"/>
	<circle fill="#031A3F" cx="135.554" cy="170.972" r="1.469"/>
	<circle fill="#031A3F" cx="140.004" cy="170.972" r="1.47"/>
	<circle fill="#031A3F" cx="144.516" cy="170.972" r="1.469"/>
	<path fill="#031A3F" d="M147.496,170.972c0-0.813,0.66-1.469,1.469-1.469c0.814,0,1.472,0.655,1.472,1.469
		c0,0.812-0.657,1.469-1.472,1.469C148.156,172.44,147.496,171.783,147.496,170.972z"/>
	<circle fill="#031A3F" cx="153.438" cy="170.972" r="1.469"/>
	<circle fill="#031A3F" cx="157.888" cy="170.972" r="1.469"/>
	<circle fill="#031A3F" cx="162.399" cy="170.972" r="1.469"/>
	<circle fill="#031A3F" cx="166.85" cy="170.972" r="1.47"/>
	<circle fill="#031A3F" cx="171.341" cy="170.972" r="1.47"/>
	<circle fill="#031A3F" cx="175.792" cy="170.972" r="1.47"/>
	<circle fill="#031A3F" cx="180.303" cy="170.972" r="1.47"/>
	<circle fill="#031A3F" cx="184.753" cy="170.972" r="1.469"/>
	<circle fill="#031A3F" cx="189.223" cy="170.972" r="1.469"/>
	<circle fill="#031A3F" cx="193.673" cy="170.972" r="1.47"/>
	<circle fill="#031A3F" cx="198.185" cy="170.972" r="1.469"/>
	<circle fill="#031A3F" cx="135.554" cy="166.481" r="1.469"/>
	<circle fill="#031A3F" cx="140.004" cy="166.481" r="1.47"/>
	<circle fill="#031A3F" cx="144.516" cy="166.481" r="1.469"/>
	<path fill="#031A3F" d="M147.496,166.481c0-0.812,0.66-1.47,1.469-1.47c0.814,0,1.472,0.658,1.472,1.47
		c0,0.813-0.657,1.469-1.472,1.469C148.156,167.95,147.496,167.295,147.496,166.481z"/>
	<circle fill="#031A3F" cx="153.438" cy="166.481" r="1.469"/>
	<circle fill="#031A3F" cx="157.888" cy="166.481" r="1.469"/>
	<circle fill="#031A3F" cx="162.399" cy="166.481" r="1.469"/>
	<circle fill="#031A3F" cx="166.85" cy="166.481" r="1.47"/>
	<circle fill="#031A3F" cx="171.341" cy="166.481" r="1.47"/>
	<circle fill="#031A3F" cx="175.792" cy="166.481" r="1.47"/>
	<circle fill="#031A3F" cx="180.303" cy="166.481" r="1.47"/>
	<circle fill="#031A3F" cx="184.753" cy="166.481" r="1.469"/>
	<circle fill="#031A3F" cx="189.223" cy="166.481" r="1.469"/>
	<circle fill="#031A3F" cx="140.004" cy="162.013" r="1.47"/>
	<circle fill="#031A3F" cx="144.516" cy="162.013" r="1.469"/>
	<path fill="#031A3F" d="M147.496,162.013c0-0.812,0.66-1.469,1.469-1.469c0.814,0,1.472,0.657,1.472,1.469
		c0,0.813-0.657,1.471-1.472,1.471C148.156,163.483,147.496,162.826,147.496,162.013z"/>
	<circle fill="#031A3F" cx="153.438" cy="162.013" r="1.469"/>
	<circle fill="#031A3F" cx="157.888" cy="162.013" r="1.469"/>
	<circle fill="#031A3F" cx="162.399" cy="162.013" r="1.469"/>
	<circle fill="#031A3F" cx="166.85" cy="162.013" r="1.47"/>
	<circle fill="#031A3F" cx="171.341" cy="162.013" r="1.47"/>
	<circle fill="#031A3F" cx="175.792" cy="162.013" r="1.47"/>
	<circle fill="#031A3F" cx="180.303" cy="162.013" r="1.47"/>
	<path fill="#031A3F" d="M143.05,157.536c0-0.811,0.657-1.469,1.471-1.469c0.812,0,1.469,0.658,1.469,1.469
		c0,0.814-0.657,1.472-1.469,1.472C143.708,159.008,143.05,158.351,143.05,157.536z"/>
	<path fill="#031A3F" d="M147.5,157.536c0-0.811,0.658-1.469,1.47-1.469c0.811,0,1.47,0.658,1.47,1.469
		c0,0.814-0.659,1.472-1.47,1.472C148.159,159.008,147.5,158.351,147.5,157.536z"/>
	<path fill="#031A3F" d="M151.972,157.536c0-0.811,0.656-1.469,1.469-1.469c0.812,0,1.47,0.658,1.47,1.469
		c0,0.814-0.658,1.472-1.47,1.472C152.628,159.008,151.972,158.351,151.972,157.536z"/>
	<path fill="#031A3F" d="M156.421,157.536c0-0.811,0.656-1.469,1.471-1.469c0.812,0,1.469,0.658,1.469,1.469
		c0,0.814-0.657,1.472-1.469,1.472C157.078,159.008,156.421,158.351,156.421,157.536z"/>
	<path fill="#031A3F" d="M160.934,157.536c0-0.811,0.657-1.469,1.469-1.469c0.813,0,1.47,0.658,1.47,1.469
		c0,0.814-0.657,1.472-1.47,1.472C161.591,159.008,160.934,158.351,160.934,157.536z"/>
	<path fill="#031A3F" d="M165.383,157.536c0-0.811,0.659-1.469,1.471-1.469c0.811,0,1.469,0.658,1.469,1.469
		c0,0.814-0.658,1.472-1.469,1.472C166.042,159.008,165.383,158.351,165.383,157.536z"/>
	<path fill="#031A3F" d="M169.875,157.536c0-0.811,0.657-1.469,1.469-1.469c0.813,0,1.469,0.658,1.469,1.469
		c0,0.814-0.656,1.472-1.469,1.472C170.533,159.008,169.875,158.351,169.875,157.536z"/>
	<path fill="#031A3F" d="M174.325,157.536c0-0.811,0.658-1.469,1.47-1.469c0.813,0,1.47,0.658,1.47,1.469
		c0,0.814-0.657,1.472-1.47,1.472C174.983,159.008,174.325,158.351,174.325,157.536z"/>
	<path fill="#031A3F" d="M178.837,157.536c0-0.811,0.657-1.469,1.469-1.469c0.813,0,1.47,0.658,1.47,1.469
		c0,0.814-0.657,1.472-1.47,1.472C179.495,159.008,178.837,158.351,178.837,157.536z"/>
	<path fill="#031A3F" d="M134.088,153.068c0-0.812,0.657-1.467,1.47-1.467c0.812,0,1.469,0.655,1.469,1.467
		c0,0.813-0.657,1.474-1.469,1.474C134.746,154.542,134.088,153.882,134.088,153.068z"/>
	<path fill="#031A3F" d="M138.538,153.068c0-0.812,0.659-1.467,1.471-1.467c0.811,0,1.469,0.655,1.469,1.467
		c0,0.813-0.658,1.474-1.469,1.474C139.197,154.542,138.538,153.882,138.538,153.068z"/>
	<path fill="#031A3F" d="M143.05,153.068c0-0.812,0.657-1.467,1.471-1.467c0.812,0,1.469,0.655,1.469,1.467
		c0,0.813-0.657,1.474-1.469,1.474C143.708,154.542,143.05,153.882,143.05,153.068z"/>
	<path fill="#031A3F" d="M147.5,153.068c0-0.812,0.658-1.467,1.47-1.467c0.811,0,1.47,0.655,1.47,1.467
		c0,0.813-0.659,1.474-1.47,1.474C148.159,154.542,147.5,153.882,147.5,153.068z"/>
	<path fill="#031A3F" d="M151.972,153.068c0-0.812,0.656-1.467,1.469-1.467c0.812,0,1.47,0.655,1.47,1.467
		c0,0.813-0.658,1.474-1.47,1.474C152.628,154.542,151.972,153.882,151.972,153.068z"/>
	<path fill="#031A3F" d="M156.421,153.068c0-0.812,0.656-1.467,1.471-1.467c0.812,0,1.469,0.655,1.469,1.467
		c0,0.813-0.657,1.474-1.469,1.474C157.078,154.542,156.421,153.882,156.421,153.068z"/>
	<path fill="#031A3F" d="M160.934,153.068c0-0.812,0.657-1.467,1.469-1.467c0.813,0,1.47,0.655,1.47,1.467
		c0,0.813-0.657,1.474-1.47,1.474C161.591,154.542,160.934,153.882,160.934,153.068z"/>
	<path fill="#031A3F" d="M165.383,153.068c0-0.812,0.659-1.467,1.471-1.467c0.811,0,1.469,0.655,1.469,1.467
		c0,0.813-0.658,1.474-1.469,1.474C166.042,154.542,165.383,153.882,165.383,153.068z"/>
	<circle fill="#031A3F" cx="131.087" cy="148.58" r="1.47"/>
	<circle fill="#031A3F" cx="144.52" cy="148.58" r="1.47"/>
	<circle fill="#031A3F" cx="148.97" cy="148.58" r="1.47"/>
	<circle fill="#031A3F" cx="153.441" cy="148.58" r="1.469"/>
	<circle fill="#031A3F" cx="157.891" cy="148.58" r="1.47"/>
	<circle fill="#031A3F" cx="162.403" cy="148.58" r="1.469"/>
	<circle fill="#031A3F" cx="126.638" cy="144.111" r="1.469"/>
	<circle fill="#031A3F" cx="131.087" cy="144.111" r="1.47"/>
	<circle fill="#031A3F" cx="148.97" cy="144.111" r="1.47"/>
	<circle fill="#031A3F" cx="166.853" cy="144.111" r="1.47"/>
	<circle fill="#031A3F" cx="113.208" cy="139.67" r="1.47"/>
	<circle fill="#031A3F" cx="117.679" cy="139.67" r="1.469"/>
	<circle fill="#031A3F" cx="122.128" cy="139.67" r="1.47"/>
	<circle fill="#031A3F" cx="126.64" cy="139.67" r="1.469"/>
	<path fill="#031A3F" d="M98.325,135.201c0-0.811,0.659-1.469,1.47-1.469c0.812,0,1.469,0.658,1.469,1.469
		c0,0.814-0.657,1.472-1.469,1.472C98.984,136.673,98.325,136.016,98.325,135.201z"/>
	<path fill="#031A3F" d="M102.776,135.201c0-0.811,0.657-1.469,1.469-1.469s1.47,0.658,1.47,1.469c0,0.814-0.658,1.472-1.47,1.472
		S102.776,136.016,102.776,135.201z"/>
	<path fill="#031A3F" d="M107.289,135.201c0-0.811,0.656-1.469,1.469-1.469c0.812,0,1.47,0.658,1.47,1.469
		c0,0.814-0.658,1.472-1.47,1.472C107.945,136.673,107.289,136.016,107.289,135.201z"/>
	<path fill="#031A3F" d="M111.738,135.201c0-0.811,0.658-1.469,1.469-1.469c0.812,0,1.471,0.658,1.471,1.469
		c0,0.814-0.659,1.472-1.471,1.472C112.396,136.673,111.738,136.016,111.738,135.201z"/>
	<path fill="#031A3F" d="M116.209,135.201c0-0.811,0.657-1.469,1.469-1.469s1.47,0.658,1.47,1.469c0,0.814-0.658,1.472-1.47,1.472
		S116.209,136.016,116.209,135.201z"/>
	<path fill="#031A3F" d="M120.658,135.201c0-0.811,0.657-1.469,1.472-1.469c0.811,0,1.469,0.658,1.469,1.469
		c0,0.814-0.658,1.472-1.469,1.472C121.315,136.673,120.658,136.016,120.658,135.201z"/>
	<path fill="#031A3F" d="M147.503,135.201c0-0.811,0.657-1.469,1.469-1.469c0.813,0,1.469,0.658,1.469,1.469
		c0,0.814-0.656,1.472-1.469,1.472C148.161,136.673,147.503,136.016,147.503,135.201z"/>
	<path fill="#031A3F" d="M151.974,135.201c0-0.811,0.658-1.469,1.469-1.469c0.814,0,1.469,0.658,1.469,1.469
		c0,0.814-0.654,1.472-1.469,1.472C152.632,136.673,151.974,136.016,151.974,135.201z"/>
	<path fill="#031A3F" d="M156.423,135.201c0-0.811,0.658-1.469,1.47-1.469c0.813,0,1.47,0.658,1.47,1.469
		c0,0.814-0.657,1.472-1.47,1.472C157.082,136.673,156.423,136.016,156.423,135.201z"/>
	<circle fill="#031A3F" cx="99.795" cy="130.713" r="1.47"/>
	<circle fill="#031A3F" cx="104.245" cy="130.713" r="1.469"/>
	<circle fill="#031A3F" cx="108.758" cy="130.713" r="1.469"/>
	<circle fill="#031A3F" cx="122.128" cy="130.713" r="1.47"/>
	<circle fill="#031A3F" cx="135.561" cy="130.713" r="1.47"/>
	<circle fill="#031A3F" cx="140.012" cy="130.713" r="1.47"/>
	<circle fill="#031A3F" cx="90.853" cy="126.243" r="1.47"/>
	<circle fill="#031A3F" cx="95.304" cy="126.243" r="1.47"/>
	<circle fill="#031A3F" cx="99.795" cy="126.243" r="1.47"/>
	<circle fill="#031A3F" cx="104.245" cy="126.243" r="1.469"/>
	<path fill="#031A3F" d="M84.876,121.771c0-0.812,0.658-1.472,1.469-1.472s1.47,0.66,1.47,1.472c0,0.808-0.659,1.468-1.47,1.468
		S84.876,122.579,84.876,121.771z"/>
	<path fill="#031A3F" d="M89.388,121.771c0-0.812,0.658-1.472,1.468-1.472c0.813,0,1.47,0.66,1.47,1.472
		c0,0.808-0.657,1.468-1.47,1.468C90.046,123.239,89.388,122.579,89.388,121.771z"/>
	<path fill="#031A3F" d="M93.836,121.771c0-0.812,0.659-1.472,1.471-1.472c0.812,0,1.469,0.66,1.469,1.472
		c0,0.808-0.657,1.468-1.469,1.468C94.495,123.239,93.836,122.579,93.836,121.771z"/>
	<path fill="#031A3F" d="M98.33,121.771c0-0.812,0.658-1.472,1.469-1.472c0.812,0,1.47,0.66,1.47,1.472
		c0,0.808-0.658,1.468-1.47,1.468C98.987,123.239,98.33,122.579,98.33,121.771z"/>
	<path fill="#031A3F" d="M102.778,121.771c0-0.812,0.658-1.472,1.47-1.472c0.813,0,1.469,0.66,1.469,1.472
		c0,0.808-0.656,1.468-1.469,1.468C103.437,123.239,102.778,122.579,102.778,121.771z"/>
	<path fill="#031A3F" d="M107.291,121.771c0-0.812,0.658-1.472,1.471-1.472c0.811,0,1.469,0.66,1.469,1.472
		c0,0.808-0.658,1.468-1.469,1.468C107.949,123.239,107.291,122.579,107.291,121.771z"/>
	<path fill="#031A3F" d="M134.094,121.771c0-0.812,0.659-1.472,1.47-1.472c0.812,0,1.469,0.66,1.469,1.472
		c0,0.808-0.657,1.468-1.469,1.468C134.753,123.239,134.094,122.579,134.094,121.771z"/>
	<circle fill="#031A3F" cx="81.895" cy="117.3" r="1.469"/>
	<circle fill="#031A3F" cx="86.345" cy="117.3" r="1.469"/>
	<circle fill="#031A3F" cx="90.857" cy="117.3" r="1.469"/>
	<circle fill="#031A3F" cx="95.306" cy="117.3" r="1.47"/>
	<circle fill="#031A3F" cx="99.799" cy="117.3" r="1.469"/>
	<circle fill="#031A3F" cx="104.248" cy="117.3" r="1.469"/>
	<circle fill="#031A3F" cx="108.76" cy="117.3" r="1.47"/>
	<circle fill="#031A3F" cx="113.21" cy="117.3" r="1.469"/>
	<circle fill="#031A3F" cx="122.131" cy="117.3" r="1.469"/>
	<circle fill="#031A3F" cx="131.093" cy="117.3" r="1.469"/>
	<path fill="#031A3F" d="M80.425,112.813c0-0.813,0.658-1.473,1.469-1.473s1.47,0.66,1.47,1.473c0,0.809-0.659,1.469-1.47,1.469
		S80.425,113.622,80.425,112.813z"/>
	<path fill="#031A3F" d="M84.876,112.813c0-0.813,0.658-1.473,1.469-1.473s1.47,0.66,1.47,1.473c0,0.809-0.659,1.469-1.47,1.469
		S84.876,113.622,84.876,112.813z"/>
	<path fill="#031A3F" d="M89.388,112.813c0-0.813,0.658-1.473,1.468-1.473c0.813,0,1.47,0.66,1.47,1.473
		c0,0.809-0.657,1.469-1.47,1.469C90.046,114.282,89.388,113.622,89.388,112.813z"/>
	<path fill="#031A3F" d="M93.836,112.813c0-0.813,0.659-1.473,1.471-1.473c0.812,0,1.469,0.66,1.469,1.473
		c0,0.809-0.657,1.469-1.469,1.469C94.495,114.282,93.836,113.622,93.836,112.813z"/>
	<path fill="#031A3F" d="M98.33,112.813c0-0.813,0.658-1.473,1.469-1.473c0.812,0,1.47,0.66,1.47,1.473
		c0,0.809-0.658,1.469-1.47,1.469C98.987,114.282,98.33,113.622,98.33,112.813z"/>
	<path fill="#031A3F" d="M102.778,112.813c0-0.813,0.658-1.473,1.47-1.473c0.813,0,1.469,0.66,1.469,1.473
		c0,0.809-0.656,1.469-1.469,1.469C103.437,114.282,102.778,113.622,102.778,112.813z"/>
	<path fill="#031A3F" d="M107.291,112.813c0-0.813,0.658-1.473,1.471-1.473c0.811,0,1.469,0.66,1.469,1.473
		c0,0.809-0.658,1.469-1.469,1.469C107.949,114.282,107.291,113.622,107.291,112.813z"/>
	<path fill="#031A3F" d="M111.741,112.813c0-0.813,0.657-1.473,1.469-1.473c0.813,0,1.47,0.66,1.47,1.473
		c0,0.809-0.656,1.469-1.47,1.469C112.398,114.282,111.741,113.622,111.741,112.813z"/>
	<path fill="#031A3F" d="M116.211,112.813c0-0.813,0.657-1.473,1.471-1.473c0.811,0,1.469,0.66,1.469,1.473
		c0,0.809-0.658,1.469-1.469,1.469C116.869,114.282,116.211,113.622,116.211,112.813z"/>
	<path fill="#031A3F" d="M120.662,112.813c0-0.813,0.658-1.473,1.47-1.473s1.469,0.66,1.469,1.473c0,0.809-0.657,1.469-1.469,1.469
		S120.662,113.622,120.662,112.813z"/>
	<path fill="#031A3F" d="M125.173,112.813c0-0.813,0.657-1.473,1.469-1.473c0.813,0,1.472,0.66,1.472,1.473
		c0,0.809-0.659,1.469-1.472,1.469C125.831,114.282,125.173,113.622,125.173,112.813z"/>
	<path fill="#031A3F" d="M129.624,112.813c0-0.813,0.658-1.473,1.47-1.473s1.469,0.66,1.469,1.473c0,0.809-0.657,1.469-1.469,1.469
		S129.624,113.622,129.624,112.813z"/>
	<circle fill="#031A3F" cx="81.895" cy="108.345" r="1.469"/>
	<circle fill="#031A3F" cx="86.345" cy="108.345" r="1.469"/>
	<circle fill="#031A3F" cx="90.857" cy="108.345" r="1.469"/>
	<circle fill="#031A3F" cx="95.306" cy="108.345" r="1.47"/>
	<circle fill="#031A3F" cx="99.799" cy="108.345" r="1.469"/>
	<circle fill="#031A3F" cx="104.248" cy="108.345" r="1.469"/>
	<circle fill="#031A3F" cx="108.76" cy="108.345" r="1.47"/>
	<circle fill="#031A3F" cx="113.21" cy="108.345" r="1.469"/>
	<circle fill="#031A3F" cx="117.681" cy="108.345" r="1.47"/>
	<circle fill="#031A3F" cx="122.131" cy="108.345" r="1.469"/>
	<circle fill="#031A3F" cx="126.644" cy="108.345" r="1.47"/>
	<circle fill="#031A3F" cx="131.093" cy="108.345" r="1.469"/>
	<circle fill="#031A3F" cx="135.563" cy="108.345" r="1.469"/>
	<path fill="#031A3F" d="M71.514,103.891c0-0.813,0.659-1.471,1.47-1.471c0.812,0,1.469,0.659,1.469,1.471
		c0,0.809-0.657,1.468-1.469,1.468C72.173,105.359,71.514,104.7,71.514,103.891z"/>
	<path fill="#031A3F" d="M75.965,103.891c0-0.813,0.658-1.471,1.47-1.471c0.811,0,1.469,0.659,1.469,1.471
		c0,0.809-0.658,1.468-1.469,1.468C76.623,105.359,75.965,104.7,75.965,103.891z"/>
	<path fill="#031A3F" d="M80.436,103.891c0-0.813,0.657-1.471,1.469-1.471s1.47,0.659,1.47,1.471c0,0.809-0.658,1.468-1.47,1.468
		S80.436,104.7,80.436,103.891z"/>
	<path fill="#031A3F" d="M84.886,103.891c0-0.813,0.658-1.471,1.47-1.471c0.811,0,1.469,0.659,1.469,1.471
		c0,0.809-0.658,1.468-1.469,1.468C85.544,105.359,84.886,104.7,84.886,103.891z"/>
	<path fill="#031A3F" d="M89.397,103.891c0-0.813,0.658-1.471,1.47-1.471c0.812,0,1.469,0.659,1.469,1.471
		c0,0.809-0.658,1.468-1.469,1.468C90.056,105.359,89.397,104.7,89.397,103.891z"/>
	<path fill="#031A3F" d="M93.848,103.891c0-0.813,0.657-1.471,1.47-1.471c0.812,0,1.47,0.659,1.47,1.471
		c0,0.809-0.658,1.468-1.47,1.468C94.505,105.359,93.848,104.7,93.848,103.891z"/>
	<path fill="#031A3F" d="M98.339,103.891c0-0.813,0.659-1.471,1.47-1.471c0.812,0,1.469,0.659,1.469,1.471
		c0,0.809-0.658,1.468-1.469,1.468C98.998,105.359,98.339,104.7,98.339,103.891z"/>
	<path fill="#031A3F" d="M102.79,103.891c0-0.813,0.657-1.471,1.469-1.471c0.813,0,1.47,0.659,1.47,1.471
		c0,0.809-0.657,1.468-1.47,1.468C103.447,105.359,102.79,104.7,102.79,103.891z"/>
	<path fill="#031A3F" d="M107.302,103.891c0-0.813,0.657-1.471,1.469-1.471s1.469,0.659,1.469,1.471
		c0,0.809-0.657,1.468-1.469,1.468S107.302,104.7,107.302,103.891z"/>
	<path fill="#031A3F" d="M111.751,103.891c0-0.813,0.659-1.471,1.471-1.471s1.469,0.659,1.469,1.471
		c0,0.809-0.657,1.468-1.469,1.468S111.751,104.7,111.751,103.891z"/>
	<path fill="#031A3F" d="M116.221,103.891c0-0.813,0.659-1.471,1.471-1.471c0.813,0,1.47,0.659,1.47,1.471
		c0,0.809-0.657,1.468-1.47,1.468C116.88,105.359,116.221,104.7,116.221,103.891z"/>
	<path fill="#031A3F" d="M120.672,103.891c0-0.813,0.658-1.471,1.471-1.471c0.81,0,1.469,0.659,1.469,1.471
		c0,0.809-0.659,1.468-1.469,1.468C121.331,105.359,120.672,104.7,120.672,103.891z"/>
	<path fill="#031A3F" d="M125.184,103.891c0-0.813,0.659-1.471,1.471-1.471c0.81,0,1.469,0.659,1.469,1.471
		c0,0.809-0.659,1.468-1.469,1.468C125.843,105.359,125.184,104.7,125.184,103.891z"/>
	<path fill="#031A3F" d="M129.634,103.891c0-0.813,0.657-1.471,1.469-1.471c0.814,0,1.471,0.659,1.471,1.471
		c0,0.809-0.656,1.468-1.471,1.468C130.292,105.359,129.634,104.7,129.634,103.891z"/>
	<path fill="#031A3F" d="M134.105,103.891c0-0.813,0.658-1.471,1.47-1.471c0.813,0,1.47,0.659,1.47,1.471
		c0,0.809-0.657,1.468-1.47,1.468C134.763,105.359,134.105,104.7,134.105,103.891z"/>
	<path fill="#031A3F" d="M138.554,103.891c0-0.813,0.66-1.471,1.469-1.471c0.813,0,1.47,0.659,1.47,1.471
		c0,0.809-0.656,1.468-1.47,1.468C139.214,105.359,138.554,104.7,138.554,103.891z"/>
	<circle fill="#031A3F" cx="72.984" cy="99.423" r="1.47"/>
	<circle fill="#031A3F" cx="77.435" cy="99.423" r="1.469"/>
	<circle fill="#031A3F" cx="81.906" cy="99.423" r="1.47"/>
	<circle fill="#031A3F" cx="86.355" cy="99.423" r="1.469"/>
	<circle fill="#031A3F" cx="90.867" cy="99.423" r="1.47"/>
	<circle fill="#031A3F" cx="95.317" cy="99.423" r="1.47"/>
	<circle fill="#031A3F" cx="99.808" cy="99.423" r="1.469"/>
	<circle fill="#031A3F" cx="104.259" cy="99.423" r="1.47"/>
	<circle fill="#031A3F" cx="108.771" cy="99.423" r="1.469"/>
	<circle fill="#031A3F" cx="113.221" cy="99.423" r="1.47"/>
	<circle fill="#031A3F" cx="117.691" cy="99.423" r="1.47"/>
	<circle fill="#031A3F" cx="122.142" cy="99.423" r="1.47"/>
	<circle fill="#031A3F" cx="126.654" cy="99.423" r="1.47"/>
	<circle fill="#031A3F" cx="131.104" cy="99.423" r="1.47"/>
	<circle fill="#031A3F" cx="135.575" cy="99.423" r="1.47"/>
	<path fill="#031A3F" d="M138.554,99.423c0-0.812,0.66-1.47,1.469-1.47c0.813,0,1.47,0.659,1.47,1.47c0,0.81-0.656,1.469-1.47,1.469
		C139.214,100.892,138.554,100.233,138.554,99.423z"/>
	<circle fill="#031A3F" cx="68.472" cy="94.934" r="1.469"/>
	<circle fill="#031A3F" cx="72.984" cy="94.934" r="1.47"/>
	<circle fill="#031A3F" cx="77.435" cy="94.934" r="1.469"/>
	<circle fill="#031A3F" cx="81.906" cy="94.934" r="1.47"/>
	<circle fill="#031A3F" cx="86.355" cy="94.934" r="1.469"/>
	<circle fill="#031A3F" cx="90.867" cy="94.934" r="1.47"/>
	<circle fill="#031A3F" cx="95.317" cy="94.934" r="1.47"/>
	<circle fill="#031A3F" cx="99.808" cy="94.934" r="1.469"/>
	<circle fill="#031A3F" cx="104.259" cy="94.934" r="1.47"/>
	<circle fill="#031A3F" cx="108.771" cy="94.934" r="1.469"/>
	<circle fill="#031A3F" cx="113.221" cy="94.934" r="1.47"/>
	<circle fill="#031A3F" cx="117.691" cy="94.934" r="1.47"/>
	<circle fill="#031A3F" cx="122.142" cy="94.934" r="1.47"/>
	<circle fill="#031A3F" cx="126.654" cy="94.934" r="1.47"/>
	<circle fill="#031A3F" cx="131.104" cy="94.934" r="1.47"/>
	<circle fill="#031A3F" cx="135.575" cy="94.934" r="1.47"/>
	<path fill="#031A3F" d="M138.554,94.934c0-0.812,0.66-1.47,1.469-1.47c0.813,0,1.47,0.658,1.47,1.47c0,0.81-0.656,1.47-1.47,1.47
		C139.214,96.403,138.554,95.744,138.554,94.934z"/>
	<circle fill="#031A3F" cx="144.537" cy="94.934" r="1.47"/>
	<circle fill="#031A3F" cx="68.472" cy="90.466" r="1.469"/>
	<circle fill="#031A3F" cx="72.984" cy="90.466" r="1.47"/>
	<circle fill="#031A3F" cx="77.435" cy="90.466" r="1.469"/>
	<circle fill="#031A3F" cx="81.906" cy="90.466" r="1.47"/>
	<circle fill="#031A3F" cx="86.355" cy="90.466" r="1.469"/>
	<circle fill="#031A3F" cx="90.867" cy="90.466" r="1.47"/>
	<circle fill="#031A3F" cx="95.317" cy="90.466" r="1.47"/>
	<circle fill="#031A3F" cx="99.808" cy="90.466" r="1.469"/>
	<circle fill="#031A3F" cx="104.259" cy="90.466" r="1.47"/>
	<circle fill="#031A3F" cx="108.771" cy="90.466" r="1.469"/>
	<circle fill="#031A3F" cx="113.221" cy="90.466" r="1.47"/>
	<circle fill="#031A3F" cx="117.691" cy="90.466" r="1.47"/>
	<circle fill="#031A3F" cx="122.142" cy="90.466" r="1.47"/>
	<circle fill="#031A3F" cx="126.654" cy="90.466" r="1.47"/>
	<circle fill="#031A3F" cx="131.104" cy="90.466" r="1.47"/>
	<circle fill="#031A3F" cx="135.575" cy="90.466" r="1.47"/>
	<path fill="#031A3F" d="M138.554,90.466c0-0.811,0.66-1.468,1.469-1.468c0.813,0,1.47,0.658,1.47,1.468s-0.656,1.469-1.47,1.469
		C139.214,91.935,138.554,91.276,138.554,90.466z"/>
	<circle fill="#031A3F" cx="144.537" cy="90.466" r="1.47"/>
	<circle fill="#031A3F" cx="148.986" cy="90.466" r="1.47"/>
	<circle fill="#031A3F" cx="68.476" cy="85.991" r="1.469"/>
	<circle fill="#031A3F" cx="72.988" cy="85.991" r="1.469"/>
	<circle fill="#031A3F" cx="77.438" cy="85.991" r="1.469"/>
	<circle fill="#031A3F" cx="81.908" cy="85.991" r="1.47"/>
	<circle fill="#031A3F" cx="86.358" cy="85.991" r="1.469"/>
	<circle fill="#031A3F" cx="90.87" cy="85.991" r="1.469"/>
	<circle fill="#031A3F" cx="95.321" cy="85.991" r="1.469"/>
	<circle fill="#031A3F" cx="99.812" cy="85.991" r="1.469"/>
	<circle fill="#031A3F" cx="104.261" cy="85.991" r="1.47"/>
	<circle fill="#031A3F" cx="108.774" cy="85.991" r="1.47"/>
	<circle fill="#031A3F" cx="113.224" cy="85.991" r="1.469"/>
	<circle fill="#031A3F" cx="117.695" cy="85.991" r="1.469"/>
	<circle fill="#031A3F" cx="122.146" cy="85.991" r="1.47"/>
	<circle fill="#031A3F" cx="126.657" cy="85.991" r="1.469"/>
	<circle fill="#031A3F" cx="131.107" cy="85.991" r="1.469"/>
	<circle fill="#031A3F" cx="135.578" cy="85.991" r="1.47"/>
	<circle fill="#031A3F" cx="140.028" cy="85.991" r="1.469"/>
	<circle fill="#031A3F" cx="144.54" cy="85.991" r="1.47"/>
	<circle fill="#031A3F" cx="148.99" cy="85.991" r="1.469"/>
	<circle fill="#031A3F" cx="153.46" cy="85.991" r="1.469"/>
	<circle fill="#031A3F" cx="157.91" cy="85.991" r="1.47"/>
	<circle fill="#031A3F" cx="162.424" cy="85.991" r="1.47"/>
	<circle fill="#031A3F" cx="68.476" cy="81.522" r="1.469"/>
	<circle fill="#031A3F" cx="72.988" cy="81.522" r="1.469"/>
	<circle fill="#031A3F" cx="77.438" cy="81.522" r="1.469"/>
	<circle fill="#031A3F" cx="81.908" cy="81.522" r="1.47"/>
	<circle fill="#031A3F" cx="86.358" cy="81.522" r="1.469"/>
	<circle fill="#031A3F" cx="90.87" cy="81.522" r="1.469"/>
	<circle fill="#031A3F" cx="95.321" cy="81.522" r="1.469"/>
	<circle fill="#031A3F" cx="99.812" cy="81.522" r="1.469"/>
	<circle fill="#031A3F" cx="104.261" cy="81.522" r="1.47"/>
	<circle fill="#031A3F" cx="108.774" cy="81.522" r="1.47"/>
	<circle fill="#031A3F" cx="113.224" cy="81.522" r="1.469"/>
	<circle fill="#031A3F" cx="117.695" cy="81.522" r="1.469"/>
	<circle fill="#031A3F" cx="122.146" cy="81.522" r="1.47"/>
	<circle fill="#031A3F" cx="126.657" cy="81.522" r="1.469"/>
	<circle fill="#031A3F" cx="131.107" cy="81.522" r="1.469"/>
	<circle fill="#031A3F" cx="135.578" cy="81.522" r="1.47"/>
	<circle fill="#031A3F" cx="140.028" cy="81.522" r="1.469"/>
	<circle fill="#031A3F" cx="144.54" cy="81.522" r="1.47"/>
	<circle fill="#031A3F" cx="148.99" cy="81.522" r="1.469"/>
	<circle fill="#031A3F" cx="153.46" cy="81.522" r="1.469"/>
	<circle fill="#031A3F" cx="157.91" cy="81.522" r="1.47"/>
	<circle fill="#031A3F" cx="175.815" cy="81.522" r="1.469"/>
	<circle fill="#031A3F" cx="72.988" cy="77.032" r="1.469"/>
	<circle fill="#031A3F" cx="77.438" cy="77.032" r="1.469"/>
	<circle fill="#031A3F" cx="81.908" cy="77.032" r="1.47"/>
	<circle fill="#031A3F" cx="86.358" cy="77.032" r="1.469"/>
	<circle fill="#031A3F" cx="90.87" cy="77.032" r="1.469"/>
	<circle fill="#031A3F" cx="95.321" cy="77.032" r="1.469"/>
	<circle fill="#031A3F" cx="99.812" cy="77.032" r="1.469"/>
	<circle fill="#031A3F" cx="104.261" cy="77.032" r="1.47"/>
	<circle fill="#031A3F" cx="108.774" cy="77.032" r="1.47"/>
	<circle fill="#031A3F" cx="113.224" cy="77.032" r="1.469"/>
	<circle fill="#031A3F" cx="117.695" cy="77.032" r="1.469"/>
	<circle fill="#031A3F" cx="122.146" cy="77.032" r="1.47"/>
	<circle fill="#031A3F" cx="126.657" cy="77.032" r="1.469"/>
	<circle fill="#031A3F" cx="131.107" cy="77.032" r="1.469"/>
	<circle fill="#031A3F" cx="135.578" cy="77.032" r="1.47"/>
	<circle fill="#031A3F" cx="140.028" cy="77.032" r="1.469"/>
	<circle fill="#031A3F" cx="144.54" cy="77.032" r="1.47"/>
	<circle fill="#031A3F" cx="148.99" cy="77.032" r="1.469"/>
	<circle fill="#031A3F" cx="153.46" cy="77.032" r="1.469"/>
	<circle fill="#031A3F" cx="171.365" cy="77.032" r="1.47"/>
	<circle fill="#031A3F" cx="175.815" cy="77.032" r="1.469"/>
	<path fill="#031A3F" d="M62.556,72.563c0-0.81,0.658-1.468,1.469-1.468c0.813,0,1.47,0.658,1.47,1.468
		c0,0.814-0.657,1.471-1.47,1.471C63.214,74.035,62.556,73.378,62.556,72.563z"/>
	<path fill="#031A3F" d="M67.006,72.563c0-0.81,0.657-1.468,1.469-1.468c0.812,0,1.469,0.658,1.469,1.468
		c0,0.814-0.658,1.471-1.469,1.471C67.664,74.035,67.006,73.378,67.006,72.563z"/>
	<path fill="#031A3F" d="M71.519,72.563c0-0.81,0.657-1.468,1.469-1.468c0.812,0,1.47,0.658,1.47,1.468
		c0,0.814-0.658,1.471-1.47,1.471C72.176,74.035,71.519,73.378,71.519,72.563z"/>
	<path fill="#031A3F" d="M75.969,72.563c0-0.81,0.658-1.468,1.469-1.468c0.813,0,1.469,0.658,1.469,1.468
		c0,0.814-0.657,1.471-1.469,1.471C76.626,74.035,75.969,73.378,75.969,72.563z"/>
	<path fill="#031A3F" d="M80.438,72.563c0-0.81,0.658-1.468,1.47-1.468c0.811,0,1.47,0.658,1.47,1.468
		c0,0.814-0.659,1.471-1.47,1.471C81.096,74.035,80.438,73.378,80.438,72.563z"/>
	<path fill="#031A3F" d="M84.889,72.563c0-0.81,0.658-1.468,1.47-1.468c0.812,0,1.469,0.658,1.469,1.468
		c0,0.814-0.657,1.471-1.469,1.471C85.547,74.035,84.889,73.378,84.889,72.563z"/>
	<path fill="#031A3F" d="M89.401,72.563c0-0.81,0.658-1.468,1.469-1.468c0.812,0,1.468,0.658,1.468,1.468
		c0,0.814-0.657,1.471-1.468,1.471C90.06,74.035,89.401,73.378,89.401,72.563z"/>
	<path fill="#031A3F" d="M93.851,72.563c0-0.81,0.658-1.468,1.469-1.468c0.813,0,1.47,0.658,1.47,1.468
		c0,0.814-0.657,1.471-1.47,1.471C94.509,74.035,93.851,73.378,93.851,72.563z"/>
	<path fill="#031A3F" d="M98.343,72.563c0-0.81,0.658-1.468,1.469-1.468c0.813,0,1.47,0.658,1.47,1.468
		c0,0.814-0.658,1.471-1.47,1.471C99.001,74.035,98.343,73.378,98.343,72.563z"/>
	<path fill="#031A3F" d="M102.791,72.563c0-0.81,0.661-1.468,1.472-1.468c0.812,0,1.469,0.658,1.469,1.468
		c0,0.814-0.657,1.471-1.469,1.471C103.451,74.035,102.791,73.378,102.791,72.563z"/>
	<path fill="#031A3F" d="M107.304,72.563c0-0.81,0.658-1.468,1.471-1.468c0.811,0,1.469,0.658,1.469,1.468
		c0,0.814-0.658,1.471-1.469,1.471C107.962,74.035,107.304,73.378,107.304,72.563z"/>
	<path fill="#031A3F" d="M111.754,72.563c0-0.81,0.658-1.468,1.47-1.468s1.469,0.658,1.469,1.468c0,0.814-0.657,1.471-1.469,1.471
		S111.754,73.378,111.754,72.563z"/>
	<path fill="#031A3F" d="M116.226,72.563c0-0.81,0.656-1.468,1.47-1.468c0.811,0,1.469,0.658,1.469,1.468
		c0,0.814-0.658,1.471-1.469,1.471C116.882,74.035,116.226,73.378,116.226,72.563z"/>
	<path fill="#031A3F" d="M120.675,72.563c0-0.81,0.657-1.468,1.47-1.468s1.471,0.658,1.471,1.468c0,0.814-0.658,1.471-1.471,1.471
		S120.675,73.378,120.675,72.563z"/>
	<path fill="#031A3F" d="M125.188,72.563c0-0.81,0.658-1.468,1.468-1.468c0.813,0,1.47,0.658,1.47,1.468
		c0,0.814-0.657,1.471-1.47,1.471C125.846,74.035,125.188,73.378,125.188,72.563z"/>
	<path fill="#031A3F" d="M129.638,72.563c0-0.81,0.656-1.468,1.469-1.468c0.812,0,1.47,0.658,1.47,1.468
		c0,0.814-0.658,1.471-1.47,1.471C130.294,74.035,129.638,73.378,129.638,72.563z"/>
	<path fill="#031A3F" d="M134.108,72.563c0-0.81,0.659-1.468,1.47-1.468c0.813,0,1.471,0.658,1.471,1.468
		c0,0.814-0.658,1.471-1.471,1.471C134.767,74.035,134.108,73.378,134.108,72.563z"/>
	<path fill="#031A3F" d="M134.09,68.574c0-0.81,0.659-1.468,1.471-1.468c0.813,0,1.47,0.658,1.47,1.468
		c0,0.814-0.657,1.471-1.47,1.471C134.75,70.045,134.09,69.388,134.09,68.574z"/>
	<path fill="#031A3F" d="M134.108,64.106c0-0.81,0.659-1.468,1.47-1.468c0.813,0,1.471,0.658,1.471,1.468
		c0,0.814-0.658,1.471-1.471,1.471C134.767,65.577,134.108,64.92,134.108,64.106z"/>
	<path fill="#031A3F" d="M138.559,72.563c0-0.81,0.656-1.468,1.469-1.468c0.812,0,1.469,0.658,1.469,1.468
		c0,0.814-0.657,1.471-1.469,1.471C139.215,74.035,138.559,73.378,138.559,72.563z"/>
	<path fill="#031A3F" d="M143.07,72.563c0-0.81,0.657-1.468,1.47-1.468c0.812,0,1.471,0.658,1.471,1.468
		c0,0.814-0.659,1.471-1.471,1.471C143.727,74.035,143.07,73.378,143.07,72.563z"/>
	<path fill="#031A3F" d="M147.521,72.563c0-0.81,0.657-1.468,1.469-1.468c0.813,0,1.469,0.658,1.469,1.468
		c0,0.814-0.656,1.471-1.469,1.471C148.178,74.035,147.521,73.378,147.521,72.563z"/>
	<path fill="#031A3F" d="M151.991,72.563c0-0.81,0.658-1.468,1.47-1.468s1.469,0.658,1.469,1.468c0,0.814-0.657,1.471-1.469,1.471
		S151.991,73.378,151.991,72.563z"/>
	<path fill="#031A3F" d="M156.44,72.563c0-0.81,0.658-1.468,1.471-1.468s1.47,0.658,1.47,1.468c0,0.814-0.657,1.471-1.47,1.471
		S156.44,73.378,156.44,72.563z"/>
	<path fill="#031A3F" d="M160.954,72.563c0-0.81,0.657-1.468,1.469-1.468s1.472,0.658,1.472,1.468c0,0.814-0.66,1.471-1.472,1.471
		S160.954,73.378,160.954,72.563z"/>
	<path fill="#031A3F" d="M165.404,72.563c0-0.81,0.657-1.468,1.47-1.468c0.81,0,1.469,0.658,1.469,1.468
		c0,0.814-0.659,1.471-1.469,1.471C166.061,74.035,165.404,73.378,165.404,72.563z"/>
	<circle fill="#031A3F" cx="64.045" cy="68.575" r="1.47"/>
	<circle fill="#031A3F" cx="68.496" cy="68.575" r="1.469"/>
	<circle fill="#031A3F" cx="73.008" cy="68.575" r="1.469"/>
	<circle fill="#031A3F" cx="77.458" cy="68.575" r="1.47"/>
	<circle fill="#031A3F" cx="81.928" cy="68.575" r="1.469"/>
	<circle fill="#031A3F" cx="86.379" cy="68.575" r="1.47"/>
	<circle fill="#031A3F" cx="90.891" cy="68.575" r="1.47"/>
	<circle fill="#031A3F" cx="95.341" cy="68.575" r="1.469"/>
	<circle fill="#031A3F" cx="99.832" cy="68.575" r="1.469"/>
	<circle fill="#031A3F" cx="104.282" cy="68.575" r="1.469"/>
	<circle fill="#031A3F" cx="108.794" cy="68.575" r="1.469"/>
	<circle fill="#031A3F" cx="113.245" cy="68.575" r="1.469"/>
	<circle fill="#031A3F" cx="117.715" cy="68.575" r="1.469"/>
	<circle fill="#031A3F" cx="122.165" cy="68.575" r="1.47"/>
	<circle fill="#031A3F" cx="126.677" cy="68.575" r="1.469"/>
	<circle fill="#031A3F" cx="131.127" cy="68.575" r="1.47"/>
	<circle fill="#031A3F" cx="140.048" cy="68.575" r="1.47"/>
	<circle fill="#031A3F" cx="144.561" cy="68.575" r="1.469"/>
	<circle fill="#031A3F" cx="149.011" cy="68.575" r="1.47"/>
	<circle fill="#031A3F" cx="153.481" cy="68.575" r="1.47"/>
	<circle fill="#031A3F" cx="157.931" cy="68.575" r="1.469"/>
	<circle fill="#031A3F" cx="162.443" cy="68.575" r="1.47"/>
	<circle fill="#031A3F" cx="166.893" cy="68.575" r="1.469"/>
	<circle fill="#031A3F" cx="171.385" cy="68.575" r="1.469"/>
	<circle fill="#031A3F" cx="5.906" cy="64.107" r="1.469"/>
	<circle fill="#031A3F" cx="59.575" cy="64.107" r="1.47"/>
	<circle fill="#031A3F" cx="64.045" cy="64.107" r="1.47"/>
	<circle fill="#031A3F" cx="68.496" cy="64.107" r="1.469"/>
	<circle fill="#031A3F" cx="73.008" cy="64.107" r="1.469"/>
	<circle fill="#031A3F" cx="77.458" cy="64.107" r="1.47"/>
	<circle fill="#031A3F" cx="81.928" cy="64.107" r="1.469"/>
	<circle fill="#031A3F" cx="86.379" cy="64.107" r="1.47"/>
	<circle fill="#031A3F" cx="90.891" cy="64.107" r="1.47"/>
	<circle fill="#031A3F" cx="95.341" cy="64.107" r="1.469"/>
	<circle fill="#031A3F" cx="99.832" cy="64.107" r="1.469"/>
	<circle fill="#031A3F" cx="104.282" cy="64.107" r="1.469"/>
	<circle fill="#031A3F" cx="108.794" cy="64.107" r="1.469"/>
	<circle fill="#031A3F" cx="113.245" cy="64.107" r="1.469"/>
	<circle fill="#031A3F" cx="117.715" cy="64.107" r="1.469"/>
	<circle fill="#031A3F" cx="122.165" cy="64.107" r="1.47"/>
	<circle fill="#031A3F" cx="126.677" cy="64.107" r="1.469"/>
	<circle fill="#031A3F" cx="131.127" cy="64.107" r="1.47"/>
	<circle fill="#031A3F" cx="140.048" cy="64.107" r="1.47"/>
	<path fill="#031A3F" d="M134.123,59.616c0-0.81,0.658-1.468,1.469-1.468c0.814,0,1.472,0.658,1.472,1.468
		c0,0.814-0.657,1.471-1.472,1.471C134.781,61.087,134.123,60.43,134.123,59.616z"/>
	<circle fill="#031A3F" cx="126.691" cy="59.617" r="1.469"/>
	<circle fill="#031A3F" cx="131.142" cy="59.617" r="1.47"/>
	<circle fill="#031A3F" cx="140.062" cy="59.617" r="1.47"/>
	<circle fill="#031A3F" cx="144.561" cy="64.107" r="1.469"/>
	<circle fill="#031A3F" cx="149.011" cy="64.107" r="1.47"/>
	<circle fill="#031A3F" cx="153.481" cy="64.107" r="1.47"/>
	<circle fill="#031A3F" cx="157.931" cy="64.107" r="1.469"/>
	<circle fill="#031A3F" cx="162.443" cy="64.107" r="1.47"/>
	<circle fill="#031A3F" cx="166.893" cy="64.107" r="1.469"/>
	<circle fill="#031A3F" cx="171.385" cy="64.107" r="1.469"/>
	<circle fill="#031A3F" cx="10.376" cy="59.618" r="1.469"/>
	<circle fill="#031A3F" cx="14.826" cy="59.618" r="1.47"/>
	<circle fill="#031A3F" cx="59.575" cy="59.618" r="1.47"/>
	<circle fill="#031A3F" cx="64.045" cy="59.618" r="1.47"/>
	<circle fill="#031A3F" cx="68.496" cy="59.618" r="1.469"/>
	<circle fill="#031A3F" cx="73.008" cy="59.618" r="1.469"/>
	<circle fill="#031A3F" cx="77.458" cy="59.618" r="1.47"/>
	<circle fill="#031A3F" cx="81.928" cy="59.618" r="1.469"/>
	<circle fill="#031A3F" cx="86.379" cy="59.618" r="1.47"/>
	<circle fill="#031A3F" cx="90.891" cy="59.618" r="1.47"/>
	<circle fill="#031A3F" cx="95.341" cy="59.618" r="1.469"/>
	<circle fill="#031A3F" cx="99.832" cy="59.618" r="1.469"/>
	<circle fill="#031A3F" cx="104.282" cy="59.618" r="1.469"/>
	<circle fill="#031A3F" cx="108.794" cy="59.618" r="1.469"/>
	<circle fill="#031A3F" cx="113.245" cy="59.618" r="1.469"/>
	<circle fill="#031A3F" cx="117.715" cy="59.618" r="1.469"/>
	<circle fill="#031A3F" cx="122.165" cy="59.618" r="1.47"/>
	<path fill="#031A3F" d="M134.123,55.148c0-0.81,0.658-1.468,1.469-1.468c0.814,0,1.472,0.658,1.472,1.468
		c0,0.814-0.657,1.471-1.472,1.471C134.781,56.619,134.123,55.962,134.123,55.148z"/>
	<circle fill="#031A3F" cx="126.691" cy="55.149" r="1.469"/>
	<circle fill="#031A3F" cx="131.142" cy="55.149" r="1.47"/>
	<circle fill="#031A3F" cx="140.062" cy="55.149" r="1.47"/>
	<circle fill="#031A3F" cx="117.715" cy="55.15" r="1.469"/>
	<circle fill="#031A3F" cx="122.165" cy="55.15" r="1.47"/>
	<path fill="#031A3F" d="M134.16,50.674c0-0.81,0.658-1.468,1.469-1.468c0.814,0,1.472,0.658,1.472,1.468
		c0,0.814-0.657,1.471-1.472,1.471C134.818,52.145,134.16,51.488,134.16,50.674z"/>
	<circle fill="#031A3F" cx="126.729" cy="50.675" r="1.469"/>
	<circle fill="#031A3F" cx="131.179" cy="50.675" r="1.47"/>
	<circle fill="#031A3F" cx="117.752" cy="50.676" r="1.469"/>
	<circle fill="#031A3F" cx="122.202" cy="50.676" r="1.47"/>
	<circle fill="#031A3F" cx="144.561" cy="59.618" r="1.469"/>
	<circle fill="#031A3F" cx="149.011" cy="59.618" r="1.47"/>
	<circle fill="#031A3F" cx="153.481" cy="59.618" r="1.47"/>
	<circle fill="#031A3F" cx="157.931" cy="59.618" r="1.469"/>
	<circle fill="#031A3F" cx="162.443" cy="59.618" r="1.47"/>
	<circle fill="#031A3F" cx="166.893" cy="59.618" r="1.469"/>
	<circle fill="#031A3F" cx="19.338" cy="55.149" r="1.469"/>
	<circle fill="#031A3F" cx="23.789" cy="55.149" r="1.469"/>
	<circle fill="#031A3F" cx="50.613" cy="55.149" r="1.47"/>
	<circle fill="#031A3F" cx="55.125" cy="55.149" r="1.469"/>
	<circle fill="#031A3F" cx="59.575" cy="55.149" r="1.47"/>
	<circle fill="#031A3F" cx="64.045" cy="55.149" r="1.47"/>
	<circle fill="#031A3F" cx="68.496" cy="55.149" r="1.469"/>
	<circle fill="#031A3F" cx="73.008" cy="55.149" r="1.469"/>
	<circle fill="#031A3F" cx="77.458" cy="55.149" r="1.47"/>
	<circle fill="#031A3F" cx="81.928" cy="55.149" r="1.469"/>
	<circle fill="#031A3F" cx="86.379" cy="55.149" r="1.47"/>
	<circle fill="#031A3F" cx="90.891" cy="55.149" r="1.47"/>
	<circle fill="#031A3F" cx="95.341" cy="55.149" r="1.469"/>
	<circle fill="#031A3F" cx="99.832" cy="55.149" r="1.469"/>
	<circle fill="#031A3F" cx="104.282" cy="55.149" r="1.469"/>
	<circle fill="#031A3F" cx="108.794" cy="55.149" r="1.469"/>
	<circle fill="#031A3F" cx="113.245" cy="55.149" r="1.469"/>
	<circle fill="#031A3F" cx="144.561" cy="55.149" r="1.469"/>
	<circle fill="#031A3F" cx="149.011" cy="55.149" r="1.47"/>
	<circle fill="#031A3F" cx="153.481" cy="55.149" r="1.47"/>
	<circle fill="#031A3F" cx="157.931" cy="55.149" r="1.469"/>
	<circle fill="#031A3F" cx="162.443" cy="55.149" r="1.47"/>
	<circle fill="#031A3F" cx="10.38" cy="50.676" r="1.469"/>
	<circle fill="#031A3F" cx="19.342" cy="50.676" r="1.469"/>
	<circle fill="#031A3F" cx="50.616" cy="50.676" r="1.469"/>
	<circle fill="#031A3F" cx="55.129" cy="50.676" r="1.469"/>
	<circle fill="#031A3F" cx="59.578" cy="50.676" r="1.469"/>
	<circle fill="#031A3F" cx="64.048" cy="50.676" r="1.469"/>
	<circle fill="#031A3F" cx="68.499" cy="50.676" r="1.469"/>
	<circle fill="#031A3F" cx="73.01" cy="50.676" r="1.47"/>
	<circle fill="#031A3F" cx="77.461" cy="50.676" r="1.47"/>
	<circle fill="#031A3F" cx="81.932" cy="50.676" r="1.469"/>
	<circle fill="#031A3F" cx="86.382" cy="50.676" r="1.469"/>
	<circle fill="#031A3F" cx="90.894" cy="50.676" r="1.47"/>
	<circle fill="#031A3F" cx="95.345" cy="50.676" r="1.47"/>
	<circle fill="#031A3F" cx="99.836" cy="50.676" r="1.469"/>
	<circle fill="#031A3F" cx="104.286" cy="50.676" r="1.47"/>
	<circle fill="#031A3F" cx="108.798" cy="50.676" r="1.469"/>
	<circle fill="#031A3F" cx="113.247" cy="50.676" r="1.469"/>
	<circle fill="#031A3F" cx="140.051" cy="50.676" r="1.47"/>
	<path fill="#031A3F" d="M134.16,46.206c0-0.81,0.658-1.468,1.469-1.468c0.814,0,1.472,0.658,1.472,1.468
		c0,0.814-0.657,1.471-1.472,1.471C134.818,47.677,134.16,47.021,134.16,46.206z"/>
	<circle fill="#031A3F" cx="126.729" cy="46.207" r="1.469"/>
	<circle fill="#031A3F" cx="131.179" cy="46.207" r="1.47"/>
	<path fill="#031A3F" d="M116.284,46.208c0-0.812,0.657-1.47,1.469-1.47c0.81,0,1.469,0.659,1.469,1.47
		c0,0.809-0.659,1.469-1.469,1.469C116.941,47.677,116.284,47.018,116.284,46.208z"/>
	<path fill="#031A3F" d="M120.732,46.208c0-0.812,0.658-1.47,1.469-1.47c0.814,0,1.472,0.659,1.472,1.47
		c0,0.809-0.657,1.469-1.472,1.469C121.39,47.677,120.732,47.018,120.732,46.208z"/>
	<path fill="#031A3F" d="M134.197,41.716c0-0.81,0.658-1.468,1.47-1.468c0.813,0,1.471,0.658,1.471,1.468
		c0,0.814-0.657,1.471-1.471,1.471C134.855,43.188,134.197,42.531,134.197,41.716z"/>
	<circle fill="#031A3F" cx="126.766" cy="41.718" r="1.469"/>
	<circle fill="#031A3F" cx="131.216" cy="41.718" r="1.47"/>
	<circle fill="#031A3F" cx="117.79" cy="41.719" r="1.469"/>
	<circle fill="#031A3F" cx="122.239" cy="41.719" r="1.47"/>
	<circle fill="#031A3F" cx="126.803" cy="37.249" r="1.469"/>
	<circle fill="#031A3F" cx="131.254" cy="37.249" r="1.469"/>
	<path fill="#031A3F" d="M120.808,37.25c0-0.812,0.657-1.47,1.469-1.47c0.813,0,1.47,0.659,1.47,1.47
		c0,0.809-0.657,1.469-1.47,1.469C121.465,38.719,120.808,38.06,120.808,37.25z"/>
	<circle fill="#031A3F" cx="140.051" cy="46.208" r="1.47"/>
	<circle fill="#031A3F" cx="144.564" cy="50.676" r="1.47"/>
	<circle fill="#031A3F" cx="149.013" cy="50.676" r="1.47"/>
	<circle fill="#031A3F" cx="162.445" cy="50.676" r="1.469"/>
	<circle fill="#031A3F" cx="5.909" cy="46.208" r="1.469"/>
	<circle fill="#031A3F" cx="10.38" cy="46.208" r="1.469"/>
	<circle fill="#031A3F" cx="14.83" cy="46.208" r="1.47"/>
	<circle fill="#031A3F" cx="19.342" cy="46.208" r="1.469"/>
	<circle fill="#031A3F" cx="23.792" cy="46.208" r="1.47"/>
	<circle fill="#031A3F" cx="28.282" cy="46.208" r="1.469"/>
	<circle fill="#031A3F" cx="37.245" cy="46.208" r="1.469"/>
	<circle fill="#031A3F" cx="41.696" cy="46.208" r="1.469"/>
	<circle fill="#031A3F" cx="46.166" cy="46.208" r="1.47"/>
	<circle fill="#031A3F" cx="50.616" cy="46.208" r="1.469"/>
	<circle fill="#031A3F" cx="55.129" cy="46.208" r="1.469"/>
	<circle fill="#031A3F" cx="59.578" cy="46.208" r="1.469"/>
	<circle fill="#031A3F" cx="64.048" cy="46.208" r="1.469"/>
	<circle fill="#031A3F" cx="68.499" cy="46.208" r="1.469"/>
	<circle fill="#031A3F" cx="73.01" cy="46.208" r="1.47"/>
	<circle fill="#031A3F" cx="77.461" cy="46.208" r="1.47"/>
	<circle fill="#031A3F" cx="81.932" cy="46.208" r="1.469"/>
	<circle fill="#031A3F" cx="86.382" cy="46.208" r="1.469"/>
	<circle fill="#031A3F" cx="90.894" cy="46.208" r="1.47"/>
	<circle fill="#031A3F" cx="95.345" cy="46.208" r="1.47"/>
	<circle fill="#031A3F" cx="99.836" cy="46.208" r="1.469"/>
	<circle fill="#031A3F" cx="104.286" cy="46.208" r="1.47"/>
	<circle fill="#031A3F" cx="108.798" cy="46.208" r="1.469"/>
	<circle fill="#031A3F" cx="113.247" cy="46.208" r="1.469"/>
	<circle fill="#031A3F" cx="144.564" cy="46.208" r="1.47"/>
	<circle fill="#031A3F" cx="149.013" cy="46.208" r="1.47"/>
	<circle fill="#031A3F" cx="5.909" cy="41.718" r="1.469"/>
	<circle fill="#031A3F" cx="10.38" cy="41.718" r="1.469"/>
	<circle fill="#031A3F" cx="14.83" cy="41.718" r="1.47"/>
	<circle fill="#031A3F" cx="19.342" cy="41.718" r="1.469"/>
	<circle fill="#031A3F" cx="23.792" cy="41.718" r="1.47"/>
	<circle fill="#031A3F" cx="28.282" cy="41.718" r="1.469"/>
	<circle fill="#031A3F" cx="32.733" cy="41.718" r="1.47"/>
	<circle fill="#031A3F" cx="37.245" cy="41.718" r="1.469"/>
	<circle fill="#031A3F" cx="41.696" cy="41.718" r="1.469"/>
	<circle fill="#031A3F" cx="46.166" cy="41.718" r="1.47"/>
	<circle fill="#031A3F" cx="50.616" cy="41.718" r="1.469"/>
	<circle fill="#031A3F" cx="55.129" cy="41.718" r="1.469"/>
	<circle fill="#031A3F" cx="59.578" cy="41.718" r="1.469"/>
	<circle fill="#031A3F" cx="64.048" cy="41.718" r="1.469"/>
	<circle fill="#031A3F" cx="68.499" cy="41.718" r="1.469"/>
	<circle fill="#031A3F" cx="73.01" cy="41.718" r="1.47"/>
	<circle fill="#031A3F" cx="77.461" cy="41.718" r="1.47"/>
	<circle fill="#031A3F" cx="81.932" cy="41.718" r="1.469"/>
	<circle fill="#031A3F" cx="86.382" cy="41.718" r="1.469"/>
	<circle fill="#031A3F" cx="90.894" cy="41.718" r="1.47"/>
	<circle fill="#031A3F" cx="95.345" cy="41.718" r="1.47"/>
	<circle fill="#031A3F" cx="99.836" cy="41.718" r="1.469"/>
	<circle fill="#031A3F" cx="104.286" cy="41.718" r="1.47"/>
	<circle fill="#031A3F" cx="108.798" cy="41.718" r="1.469"/>
	<circle fill="#031A3F" cx="113.247" cy="41.718" r="1.469"/>
	<circle fill="#031A3F" cx="140.051" cy="41.718" r="1.47"/>
	<circle fill="#031A3F" cx="144.564" cy="41.718" r="1.47"/>
	<circle fill="#031A3F" cx="157.935" cy="41.718" r="1.469"/>
	<circle fill="#031A3F" cx="10.38" cy="37.25" r="1.469"/>
	<circle fill="#031A3F" cx="14.83" cy="37.25" r="1.47"/>
	<circle fill="#031A3F" cx="19.342" cy="37.25" r="1.469"/>
	<circle fill="#031A3F" cx="23.792" cy="37.25" r="1.47"/>
	<circle fill="#031A3F" cx="28.282" cy="37.25" r="1.469"/>
	<circle fill="#031A3F" cx="32.733" cy="37.25" r="1.47"/>
	<circle fill="#031A3F" cx="37.245" cy="37.25" r="1.469"/>
	<circle fill="#031A3F" cx="41.696" cy="37.25" r="1.469"/>
	<circle fill="#031A3F" cx="46.166" cy="37.25" r="1.47"/>
	<circle fill="#031A3F" cx="50.616" cy="37.25" r="1.469"/>
	<circle fill="#031A3F" cx="55.129" cy="37.25" r="1.469"/>
	<circle fill="#031A3F" cx="59.578" cy="37.25" r="1.469"/>
	<circle fill="#031A3F" cx="64.048" cy="37.25" r="1.469"/>
	<circle fill="#031A3F" cx="68.499" cy="37.25" r="1.469"/>
	<circle fill="#031A3F" cx="73.01" cy="37.25" r="1.47"/>
	<circle fill="#031A3F" cx="77.461" cy="37.25" r="1.47"/>
	<circle fill="#031A3F" cx="81.932" cy="37.25" r="1.469"/>
	<circle fill="#031A3F" cx="86.382" cy="37.25" r="1.469"/>
	<circle fill="#031A3F" cx="90.894" cy="37.25" r="1.47"/>
	<circle fill="#031A3F" cx="95.345" cy="37.25" r="1.47"/>
	<circle fill="#031A3F" cx="99.836" cy="37.25" r="1.469"/>
	<circle fill="#031A3F" cx="104.286" cy="37.25" r="1.47"/>
	<circle fill="#031A3F" cx="108.798" cy="37.25" r="1.469"/>
	<circle fill="#031A3F" cx="113.247" cy="37.25" r="1.469"/>
	<circle fill="#031A3F" cx="117.718" cy="37.25" r="1.47"/>
	<circle fill="#031A3F" cx="135.601" cy="37.25" r="1.47"/>
	<circle fill="#031A3F" cx="153.484" cy="37.25" r="1.47"/>
	<circle fill="#031A3F" cx="157.935" cy="37.25" r="1.469"/>
	<circle fill="#031A3F" cx="14.84" cy="32.796" r="1.47"/>
	<circle fill="#031A3F" cx="19.352" cy="32.796" r="1.469"/>
	<circle fill="#031A3F" cx="23.802" cy="32.796" r="1.469"/>
	<circle fill="#031A3F" cx="28.294" cy="32.796" r="1.469"/>
	<circle fill="#031A3F" cx="32.744" cy="32.796" r="1.469"/>
	<circle fill="#031A3F" cx="37.256" cy="32.796" r="1.469"/>
	<circle fill="#031A3F" cx="41.706" cy="32.796" r="1.47"/>
	<circle fill="#031A3F" cx="46.176" cy="32.796" r="1.469"/>
	<circle fill="#031A3F" cx="50.627" cy="32.796" r="1.47"/>
	<circle fill="#031A3F" cx="55.139" cy="32.796" r="1.47"/>
	<circle fill="#031A3F" cx="59.589" cy="32.796" r="1.47"/>
	<circle fill="#031A3F" cx="64.06" cy="32.796" r="1.469"/>
	<circle fill="#031A3F" cx="68.51" cy="32.796" r="1.469"/>
	<circle fill="#031A3F" cx="73.022" cy="32.796" r="1.47"/>
	<circle fill="#031A3F" cx="77.472" cy="32.796" r="1.47"/>
	<circle fill="#031A3F" cx="81.942" cy="32.796" r="1.469"/>
	<circle fill="#031A3F" cx="86.393" cy="32.796" r="1.469"/>
	<circle fill="#031A3F" cx="90.905" cy="32.796" r="1.469"/>
	<circle fill="#031A3F" cx="95.355" cy="32.796" r="1.469"/>
	<circle fill="#031A3F" cx="99.846" cy="32.796" r="1.47"/>
	<circle fill="#031A3F" cx="104.296" cy="32.796" r="1.47"/>
	<circle fill="#031A3F" cx="108.809" cy="32.796" r="1.469"/>
	<circle fill="#031A3F" cx="113.258" cy="32.796" r="1.47"/>
	<circle fill="#031A3F" cx="117.729" cy="32.796" r="1.47"/>
	<circle fill="#031A3F" cx="122.18" cy="32.796" r="1.47"/>
	<circle fill="#031A3F" cx="126.691" cy="32.796" r="1.469"/>
	<circle fill="#031A3F" cx="131.14" cy="32.796" r="1.469"/>
	<circle fill="#031A3F" cx="140.062" cy="32.796" r="1.47"/>
	<circle fill="#031A3F" cx="144.573" cy="32.796" r="1.469"/>
	<circle fill="#031A3F" cx="149.024" cy="32.796" r="1.469"/>
	<circle fill="#031A3F" cx="153.496" cy="32.796" r="1.469"/>
	<circle fill="#031A3F" cx="157.944" cy="32.796" r="1.469"/>
	<circle fill="#031A3F" cx="1.469" cy="28.328" r="1.469"/>
	<circle fill="#031A3F" cx="5.919" cy="28.328" r="1.469"/>
	<circle fill="#031A3F" cx="10.391" cy="28.328" r="1.47"/>
	<circle fill="#031A3F" cx="14.84" cy="28.328" r="1.47"/>
	<circle fill="#031A3F" cx="19.352" cy="28.328" r="1.469"/>
	<circle fill="#031A3F" cx="23.802" cy="28.328" r="1.469"/>
	<circle fill="#031A3F" cx="28.294" cy="28.328" r="1.469"/>
	<circle fill="#031A3F" cx="32.744" cy="28.328" r="1.469"/>
	<circle fill="#031A3F" cx="37.256" cy="28.328" r="1.469"/>
	<circle fill="#031A3F" cx="41.706" cy="28.328" r="1.47"/>
	<circle fill="#031A3F" cx="46.176" cy="28.328" r="1.469"/>
	<circle fill="#031A3F" cx="50.627" cy="28.328" r="1.47"/>
	<circle fill="#031A3F" cx="55.139" cy="28.328" r="1.47"/>
	<circle fill="#031A3F" cx="59.589" cy="28.328" r="1.47"/>
	<circle fill="#031A3F" cx="64.06" cy="28.328" r="1.469"/>
	<circle fill="#031A3F" cx="68.51" cy="28.328" r="1.469"/>
	<circle fill="#031A3F" cx="73.022" cy="28.328" r="1.47"/>
	<circle fill="#031A3F" cx="77.472" cy="28.328" r="1.47"/>
	<circle fill="#031A3F" cx="81.942" cy="28.328" r="1.469"/>
	<circle fill="#031A3F" cx="86.393" cy="28.328" r="1.469"/>
	<circle fill="#031A3F" cx="90.905" cy="28.328" r="1.469"/>
	<circle fill="#031A3F" cx="95.355" cy="28.328" r="1.469"/>
	<circle fill="#031A3F" cx="99.846" cy="28.328" r="1.47"/>
	<circle fill="#031A3F" cx="104.296" cy="28.328" r="1.47"/>
	<circle fill="#031A3F" cx="108.809" cy="28.328" r="1.469"/>
	<circle fill="#031A3F" cx="113.258" cy="28.328" r="1.47"/>
	<circle fill="#031A3F" cx="117.729" cy="28.328" r="1.47"/>
	<circle fill="#031A3F" cx="122.18" cy="28.328" r="1.47"/>
	<circle fill="#031A3F" cx="126.691" cy="28.328" r="1.469"/>
	<circle fill="#031A3F" cx="144.573" cy="28.328" r="1.469"/>
	<circle fill="#031A3F" cx="149.024" cy="28.328" r="1.469"/>
	<circle fill="#031A3F" cx="153.496" cy="28.328" r="1.469"/>
	<circle fill="#031A3F" cx="162.458" cy="28.328" r="1.469"/>
	<circle fill="#031A3F" cx="10.391" cy="23.838" r="1.47"/>
	<circle fill="#031A3F" cx="14.84" cy="23.838" r="1.47"/>
	<circle fill="#031A3F" cx="19.352" cy="23.838" r="1.47"/>
	<circle fill="#031A3F" cx="23.802" cy="23.838" r="1.469"/>
	<circle fill="#031A3F" cx="28.294" cy="23.838" r="1.469"/>
	<circle fill="#031A3F" cx="32.744" cy="23.838" r="1.469"/>
	<circle fill="#031A3F" cx="37.256" cy="23.838" r="1.469"/>
	<circle fill="#031A3F" cx="41.706" cy="23.838" r="1.47"/>
	<circle fill="#031A3F" cx="46.176" cy="23.838" r="1.469"/>
	<circle fill="#031A3F" cx="50.627" cy="23.838" r="1.47"/>
	<circle fill="#031A3F" cx="55.139" cy="23.838" r="1.47"/>
	<circle fill="#031A3F" cx="59.589" cy="23.838" r="1.47"/>
	<circle fill="#031A3F" cx="64.06" cy="23.838" r="1.469"/>
	<circle fill="#031A3F" cx="68.51" cy="23.838" r="1.469"/>
	<circle fill="#031A3F" cx="73.022" cy="23.838" r="1.47"/>
	<circle fill="#031A3F" cx="77.472" cy="23.838" r="1.47"/>
	<circle fill="#031A3F" cx="81.942" cy="23.838" r="1.469"/>
	<circle fill="#031A3F" cx="86.393" cy="23.838" r="1.469"/>
	<circle fill="#031A3F" cx="90.905" cy="23.838" r="1.469"/>
	<circle fill="#031A3F" cx="95.355" cy="23.838" r="1.469"/>
	<circle fill="#031A3F" cx="99.846" cy="23.838" r="1.47"/>
	<circle fill="#031A3F" cx="104.296" cy="23.838" r="1.47"/>
	<circle fill="#031A3F" cx="108.809" cy="23.838" r="1.469"/>
	<circle fill="#031A3F" cx="113.258" cy="23.838" r="1.47"/>
	<circle fill="#031A3F" cx="117.729" cy="23.838" r="1.47"/>
	<circle fill="#031A3F" cx="122.18" cy="23.838" r="1.47"/>
	<circle fill="#031A3F" cx="126.691" cy="23.838" r="1.469"/>
	<circle fill="#031A3F" cx="131.14" cy="23.838" r="1.469"/>
	<circle fill="#031A3F" cx="149.024" cy="23.838" r="1.469"/>
	<circle fill="#031A3F" cx="153.496" cy="23.838" r="1.469"/>
	<circle fill="#031A3F" cx="157.944" cy="23.838" r="1.469"/>
	<circle fill="#031A3F" cx="162.458" cy="23.838" r="1.469"/>
	<circle fill="#031A3F" cx="5.919" cy="19.37" r="1.469"/>
	<circle fill="#031A3F" cx="10.391" cy="19.37" r="1.47"/>
	<circle fill="#031A3F" cx="14.84" cy="19.37" r="1.47"/>
	<circle fill="#031A3F" cx="19.352" cy="19.37" r="1.47"/>
	<circle fill="#031A3F" cx="23.802" cy="19.37" r="1.469"/>
	<circle fill="#031A3F" cx="28.294" cy="19.37" r="1.469"/>
	<circle fill="#031A3F" cx="32.744" cy="19.37" r="1.469"/>
	<circle fill="#031A3F" cx="37.256" cy="19.37" r="1.469"/>
	<circle fill="#031A3F" cx="41.706" cy="19.37" r="1.47"/>
	<circle fill="#031A3F" cx="46.176" cy="19.37" r="1.469"/>
	<circle fill="#031A3F" cx="50.627" cy="19.37" r="1.47"/>
	<circle fill="#031A3F" cx="55.139" cy="19.37" r="1.47"/>
	<circle fill="#031A3F" cx="59.589" cy="19.37" r="1.47"/>
	<circle fill="#031A3F" cx="64.06" cy="19.37" r="1.469"/>
	<circle fill="#031A3F" cx="68.51" cy="19.37" r="1.469"/>
	<circle fill="#031A3F" cx="73.022" cy="19.37" r="1.47"/>
	<circle fill="#031A3F" cx="77.472" cy="19.37" r="1.47"/>
	<circle fill="#031A3F" cx="95.355" cy="19.37" r="1.469"/>
	<circle fill="#031A3F" cx="99.846" cy="19.37" r="1.47"/>
	<circle fill="#031A3F" cx="108.809" cy="19.37" r="1.469"/>
	<circle fill="#031A3F" cx="113.258" cy="19.37" r="1.47"/>
	<circle fill="#031A3F" cx="117.729" cy="19.37" r="1.47"/>
	<circle fill="#031A3F" cx="122.18" cy="19.37" r="1.47"/>
	<circle fill="#031A3F" cx="126.691" cy="19.37" r="1.469"/>
	<circle fill="#031A3F" cx="131.14" cy="19.37" r="1.469"/>
	<circle fill="#031A3F" cx="140.062" cy="19.37" r="1.47"/>
	<circle fill="#031A3F" cx="149.024" cy="19.37" r="1.469"/>
	<circle fill="#031A3F" cx="153.496" cy="19.37" r="1.469"/>
	<circle fill="#031A3F" cx="157.944" cy="19.37" r="1.469"/>
	<circle fill="#031A3F" cx="10.393" cy="14.896" r="1.469"/>
	<circle fill="#031A3F" cx="14.844" cy="14.896" r="1.469"/>
	<circle fill="#031A3F" cx="19.355" cy="14.896" r="1.47"/>
	<circle fill="#031A3F" cx="23.806" cy="14.896" r="1.469"/>
	<circle fill="#031A3F" cx="28.297" cy="14.896" r="1.47"/>
	<circle fill="#031A3F" cx="32.748" cy="14.896" r="1.469"/>
	<circle fill="#031A3F" cx="37.26" cy="14.896" r="1.469"/>
	<circle fill="#031A3F" cx="41.709" cy="14.896" r="1.469"/>
	<circle fill="#031A3F" cx="46.179" cy="14.896" r="1.469"/>
	<circle fill="#031A3F" cx="59.592" cy="14.896" r="1.469"/>
	<circle fill="#031A3F" cx="64.063" cy="14.896" r="1.47"/>
	<circle fill="#031A3F" cx="68.513" cy="14.896" r="1.47"/>
	<circle fill="#031A3F" cx="73.025" cy="14.896" r="1.469"/>
	<circle fill="#031A3F" cx="86.396" cy="14.896" r="1.469"/>
	<circle fill="#031A3F" cx="90.908" cy="14.896" r="1.47"/>
	<circle fill="#031A3F" cx="99.85" cy="14.896" r="1.469"/>
	<circle fill="#031A3F" cx="108.812" cy="14.896" r="1.47"/>
	<circle fill="#031A3F" cx="113.261" cy="14.896" r="1.469"/>
	<circle fill="#031A3F" cx="117.732" cy="14.896" r="1.47"/>
	<circle fill="#031A3F" cx="122.183" cy="14.896" r="1.47"/>
	<circle fill="#031A3F" cx="131.144" cy="14.896" r="1.469"/>
	<circle fill="#031A3F" cx="144.578" cy="14.896" r="1.47"/>
	<circle fill="#031A3F" cx="149.028" cy="14.896" r="1.47"/>
	<circle fill="#031A3F" cx="153.499" cy="14.896" r="1.47"/>
	<circle fill="#031A3F" cx="10.393" cy="10.429" r="1.469"/>
	<circle fill="#031A3F" cx="14.844" cy="10.429" r="1.469"/>
	<circle fill="#031A3F" cx="19.355" cy="10.429" r="1.47"/>
	<circle fill="#031A3F" cx="23.806" cy="10.429" r="1.469"/>
	<circle fill="#031A3F" cx="28.297" cy="10.429" r="1.47"/>
	<circle fill="#031A3F" cx="32.748" cy="10.429" r="1.469"/>
	<circle fill="#031A3F" cx="37.26" cy="10.429" r="1.469"/>
	<circle fill="#031A3F" cx="81.945" cy="10.429" r="1.47"/>
	<circle fill="#031A3F" cx="86.396" cy="10.429" r="1.469"/>
	<circle fill="#031A3F" cx="90.908" cy="10.429" r="1.47"/>
	<circle fill="#031A3F" cx="95.357" cy="10.429" r="1.47"/>
	<circle fill="#031A3F" cx="99.85" cy="10.429" r="1.469"/>
	<circle fill="#031A3F" cx="104.299" cy="10.429" r="1.47"/>
	<circle fill="#031A3F" cx="113.261" cy="10.429" r="1.469"/>
	<circle fill="#031A3F" cx="117.732" cy="10.429" r="1.47"/>
	<circle fill="#031A3F" cx="131.144" cy="10.429" r="1.469"/>
	<circle fill="#031A3F" cx="135.615" cy="10.429" r="1.47"/>
	<circle fill="#031A3F" cx="140.065" cy="10.429" r="1.469"/>
	<circle fill="#031A3F" cx="144.578" cy="10.429" r="1.47"/>
	<circle fill="#031A3F" cx="149.028" cy="10.429" r="1.47"/>
	<circle fill="#031A3F" cx="153.499" cy="10.429" r="1.47"/>
	<circle fill="#031A3F" cx="19.355" cy="5.938" r="1.47"/>
	<circle fill="#031A3F" cx="23.806" cy="5.938" r="1.469"/>
	<circle fill="#031A3F" cx="77.475" cy="5.938" r="1.469"/>
	<circle fill="#031A3F" cx="81.945" cy="5.938" r="1.47"/>
	<circle fill="#031A3F" cx="86.396" cy="5.938" r="1.469"/>
	<circle fill="#031A3F" cx="90.908" cy="5.938" r="1.47"/>
	<circle fill="#031A3F" cx="95.357" cy="5.938" r="1.47"/>
	<circle fill="#031A3F" cx="113.261" cy="5.938" r="1.469"/>
	<circle fill="#031A3F" cx="126.695" cy="5.938" r="1.47"/>
	<circle fill="#031A3F" cx="131.144" cy="5.938" r="1.469"/>
	<circle fill="#031A3F" cx="135.615" cy="5.938" r="1.47"/>
	<circle fill="#031A3F" cx="140.065" cy="5.938" r="1.469"/>
	<circle fill="#031A3F" cx="144.578" cy="5.938" r="1.47"/>
	<circle fill="#031A3F" cx="149.028" cy="5.938" r="1.47"/>
	<circle fill="#031A3F" cx="68.513" cy="1.47" r="1.47"/>
	<circle fill="#031A3F" cx="73.025" cy="1.47" r="1.469"/>
	<circle fill="#031A3F" cx="77.475" cy="1.47" r="1.469"/>
	<circle fill="#031A3F" cx="81.945" cy="1.47" r="1.47"/>
	<circle fill="#031A3F" cx="90.908" cy="1.47" r="1.47"/>
	<circle fill="#031A3F" cx="95.357" cy="1.47" r="1.47"/>
	<circle fill="#031A3F" cx="108.812" cy="1.47" r="1.47"/>
	<circle fill="#031A3F" cx="113.261" cy="1.47" r="1.469"/>
	<circle fill="#031A3F" cx="122.183" cy="1.47" r="1.47"/>
	<circle fill="#031A3F" cx="126.695" cy="1.47" r="1.47"/>
	<circle fill="#031A3F" cx="131.144" cy="1.47" r="1.469"/>
	<circle fill="#031A3F" cx="140.065" cy="1.47" r="1.469"/>
	<circle fill="#031A3F" cx="144.578" cy="1.47" r="1.47"/>
</g>
</svg>
